<?xml version="1.0" encoding="UTF-8" standalone="no"?>
<!-- Created with Inkscape (http://www.inkscape.org/) -->

<svg
   width="1920"
   height="1080"
   viewBox="0 0 1920 1080"
   version="1.1"
   id="svg5"
   xml:space="preserve"
   inkscape:version="1.2.1 (9c6d41e410, 2022-07-14)"
   sodipodi:docname="wallpaper-day.svg"
   inkscape:export-filename="wallpaper-day.png"
   inkscape:export-xdpi="96"
   inkscape:export-ydpi="96"
   xmlns:inkscape="http://www.inkscape.org/namespaces/inkscape"
   xmlns:sodipodi="http://sodipodi.sourceforge.net/DTD/sodipodi-0.dtd"
   xmlns="http://www.w3.org/2000/svg"
   xmlns:svg="http://www.w3.org/2000/svg"><sodipodi:namedview
     id="namedview7"
     pagecolor="#ffffff"
     bordercolor="#666666"
     borderopacity="1.0"
     inkscape:showpageshadow="2"
     inkscape:pageopacity="0.0"
     inkscape:pagecheckerboard="0"
     inkscape:deskcolor="#d1d1d1"
     inkscape:document-units="px"
     showgrid="false"
     inkscape:zoom="0.35963542"
     inkscape:cx="1051.0644"
     inkscape:cy="525.53222"
     inkscape:window-width="1920"
     inkscape:window-height="1011"
     inkscape:window-x="0"
     inkscape:window-y="0"
     inkscape:window-maximized="1"
     inkscape:current-layer="layer1" /><defs
     id="defs2"><linearGradient
       id="linearGradient4404"
       inkscape:swatch="solid"><stop
         style="stop-color:#000000;stop-opacity:1;"
         offset="0"
         id="stop4402" /></linearGradient><linearGradient
       id="linearGradient2874"
       inkscape:swatch="solid"><stop
         style="stop-color:#ff00ff;stop-opacity:1;"
         offset="0"
         id="stop2872" /></linearGradient><pattern
       patternUnits="userSpaceOnUse"
       width="304"
       height="304"
       patternTransform="translate(1193.4272,482.00796)"
       id="pattern4341"><path
         fill="#000000"
         d="m 44.1,224 a 5,5 0 1 1 0,2 H 0 v -2 z m 160,48 a 5,5 0 1 1 0,2 H 82 v -2 z m 57.8,-46 a 5,5 0 1 1 0,-2 H 304 v 2 z m 0,16 a 5,5 0 1 1 0,-2 H 304 v 2 z m 6.2,-114 a 5,5 0 1 1 0,2 h -86.2 a 5,5 0 1 1 0,-2 z M 12.1,80 a 5,5 0 1 1 0,2 H 0 v -2 z m 185.8,34 a 5,5 0 1 1 0,-2 h 86.2 a 5,5 0 1 1 0,2 z M 258,12.1 a 5,5 0 1 1 -2,0 V 0 h 2 z m -64,208 a 5,5 0 1 1 -2,0 v -54.2 a 5,5 0 1 1 2,0 z M 242,21.9 V 80 h 62 v 2 H 240 V 21.9 a 5,5 0 1 1 2,0 z m 16,16 V 64 h 46 v 2 H 256 V 37.9 a 5,5 0 1 1 2,0 z m -128,96 V 208 h 16 v 12.1 a 5,5 0 1 1 -2,0 V 210 h -16 v -76.1 a 5,5 0 1 1 2,0 z M 124.1,112 a 5,5 0 1 1 0,2 H 114 v 48 H 85.9 a 5,5 0 1 1 0,-2 H 112 v -48 z m -6.2,130 a 5,5 0 1 1 0,-2 H 176 v -74.1 a 5,5 0 1 1 2,0 V 242 Z m -16,-64 a 5,5 0 1 1 0,-2 H 114 v 48 h 10.1 a 5,5 0 1 1 0,2 H 112 V 178 Z M 66,284.1 a 5,5 0 1 1 -2,0 V 274 H 50 v 30 H 48 V 272 H 66 Z M 236.1,176 a 5,5 0 1 1 0,2 H 226 v 94 h 48 v 32 h -2 v -30 h -48 v -98 z m 25.8,-30 a 5,5 0 1 1 0,-2 H 274 v 44.1 a 5,5 0 1 1 -2,0 V 146 Z m -64,96 a 5,5 0 1 1 0,-2 H 208 v -80 h 16 v -14 h -42.1 a 5,5 0 1 1 0,-2 H 226 v 18 h -16 v 80 z M 284.1,32 a 5,5 0 1 1 0,2 H 272 V 0 h 2 V 32 Z M 98,101.9 V 146 H 53.9 a 5,5 0 1 1 0,-2 H 96 v -42.1 a 5,5 0 1 1 2,0 z M 53.9,34 a 5,5 0 1 1 0,-2 H 80 V 0 h 2 V 34 Z M 114,37.9 V 66 H 82 v 64 H 69.9 a 5,5 0 1 1 0,-2 H 80 V 64 h 32 V 37.9 a 5,5 0 1 1 2,0 z M 101.9,82 a 5,5 0 1 1 0,-2 H 128 V 37.9 a 5,5 0 1 1 2,0 V 82 Z m 16,-64 a 5,5 0 1 1 0,-2 H 146 v 44.1 a 5,5 0 1 1 -2,0 V 18 Z m 102.2,270 a 5,5 0 1 1 0,2 H 98 v 14 H 96 V 288 Z M 242,149.9 V 160 h 16 v 34 h -16 v 62 h 48 v 48 h -2 v -46 h -48 v -66 h 16 v -30 h -16 v -12.1 a 5,5 0 1 1 2,0 z M 53.9,18 a 5,5 0 1 1 0,-2 H 64 V 2 H 48 V 0 h 18 v 18 z m 112,32 a 5,5 0 1 1 0,-2 H 192 V 0 h 50 v 2 h -48 v 48 z m -48,-48 a 5.0009999,5.0009999 0 0 1 -9.8,-2 h 2.07 a 3,3 0 1 0 5.66,0 H 178 V 34 H 160 V 21.9 a 5,5 0 1 1 2,0 V 32 h 14 V 2 Z m 0,96 a 5,5 0 1 1 0,-2 H 137 l 32,-32 h 39 V 21.9 a 5,5 0 1 1 2,0 V 66 h -40.17 l -32,32 z m 28.1,90.1 a 5,5 0 1 1 -2,0 V 111.59 L 175.59,80 H 224 V 21.9 a 5,5 0 1 1 2,0 V 82 H 176.41 L 146,112.41 Z m 16,32 a 5,5 0 1 1 -2,0 V 120.59 L 184.59,96 H 300.1 a 5,5 0 0 1 3.9,-3.9 v 2.07 a 3,3 0 0 0 0,5.66 v 2.07 A 5,5 0 0 1 300.1,98 H 185.41 L 162,121.41 Z m -144,-64 a 5,5 0 1 1 -2,0 v -3.51 l 48,-48 V 48 H 96 V 0 h 2 V 50 H 66 v 55.41 l -48,48 z M 50,53.9 v 43.51 l -48,48 V 208 h 26.1 a 5,5 0 1 1 0,2 H 0 v -65.41 l 48,-48 V 53.9 a 5,5 0 1 1 2,0 z m -16,16 v 19.51 l -34,34 v -2.82 l 32,-32 V 69.9 a 5,5 0 1 1 2,0 z M 12.1,32 a 5,5 0 1 1 0,2 H 9.41 L 0,43.41 V 40.6 L 8.59,32 Z m 265.8,18 a 5,5 0 1 1 0,-2 h 18.69 L 304,40.59 v 2.82 L 297.41,50 Z m -16,160 a 5,5 0 1 1 0,-2 H 288 v -71.41 l 16,-16 v 2.82 l -14,14 V 210 Z m -208,32 a 5,5 0 1 1 0,-2 H 64 V 217.41 L 40.59,194 H 21.9 a 5,5 0 1 1 0,-2 H 41.41 L 66,216.59 V 242 Z m 150.2,14 a 5,5 0 1 1 0,2 H 96 V 201.4 L 56.6,162 H 37.9 a 5,5 0 1 1 0,-2 H 57.4 L 98,200.6 V 256 Z m -150.2,2 a 5,5 0 1 1 0,-2 H 80 V 209.41 L 48.59,178 H 21.9 a 5,5 0 1 1 0,-2 H 49.41 L 82,208.59 V 258 Z M 34,39.8 v 1.61 L 9.41,66 H 0 V 64 H 8.59 L 32,40.59 V 0 h 2 z M 2,300.1 A 5,5 0 0 1 5.9,304 H 3.83 A 3,3 0 0 0 0,302.17 V 256 h 18 v 48 H 16 V 258 H 2 Z M 34,241 v 63 H 32 V 242 H 0 v -2 H 34 Z M 17,18 H 0 V 16 H 16 V 0 h 2 v 18 z m 273,-2 h 14 v 2 H 288 V 0 h 2 z m -32,273 v 15 h -2 v -14 h -14 v 14 h -2 v -16 h 18 z M 0,92.1 A 5.02,5.02 0 0 1 6,97 5,5 0 0 1 0,101.9 V 99.83 A 3,3 0 1 0 0,94.17 Z M 80,272 h 2 v 32 h -2 z m 37.9,32 h -2.07 a 3,3 0 0 0 -5.66,0 h -2.07 a 5,5 0 0 1 9.8,0 z M 5.9,0 A 5.02,5.02 0 0 1 0,5.9 V 3.83 A 3,3 0 0 0 3.83,0 Z m 294.2,0 h 2.07 A 3,3 0 0 0 304,3.83 V 5.9 A 5,5 0 0 1 300.1,0 Z m 3.9,300.1 v 2.07 a 3,3 0 0 0 -1.83,1.83 h -2.07 a 5,5 0 0 1 3.9,-3.9 z M 97,100 a 3,3 0 1 0 0,-6 3,3 0 0 0 0,6 z m 0,-16 a 3,3 0 1 0 0,-6 3,3 0 0 0 0,6 z m 16,16 a 3,3 0 1 0 0,-6 3,3 0 0 0 0,6 z m 16,16 a 3,3 0 1 0 0,-6 3,3 0 0 0 0,6 z m 0,16 a 3,3 0 1 0 0,-6 3,3 0 0 0 0,6 z m -48,32 a 3,3 0 1 0 0,-6 3,3 0 0 0 0,6 z m 16,16 a 3,3 0 1 0 0,-6 3,3 0 0 0 0,6 z m 32,48 a 3,3 0 1 0 0,-6 3,3 0 0 0 0,6 z m -16,16 a 3,3 0 1 0 0,-6 3,3 0 0 0 0,6 z m 32,-16 a 3,3 0 1 0 0,-6 3,3 0 0 0 0,6 z m 0,-32 a 3,3 0 1 0 0,-6 3,3 0 0 0 0,6 z m 16,32 a 3,3 0 1 0 0,-6 3,3 0 0 0 0,6 z m 32,16 a 3,3 0 1 0 0,-6 3,3 0 0 0 0,6 z m 0,-16 a 3,3 0 1 0 0,-6 3,3 0 0 0 0,6 z m -16,-64 a 3,3 0 1 0 0,-6 3,3 0 0 0 0,6 z m 16,0 a 3,3 0 1 0 0,-6 3,3 0 0 0 0,6 z m 16,96 a 3,3 0 1 0 0,-6 3,3 0 0 0 0,6 z m 0,16 a 3,3 0 1 0 0,-6 3,3 0 0 0 0,6 z m 16,16 a 3,3 0 1 0 0,-6 3,3 0 0 0 0,6 z m 16,-144 a 3,3 0 1 0 0,-6 3,3 0 0 0 0,6 z m 0,32 a 3,3 0 1 0 0,-6 3,3 0 0 0 0,6 z m 16,-32 a 3,3 0 1 0 0,-6 3,3 0 0 0 0,6 z m 16,-16 a 3,3 0 1 0 0,-6 3,3 0 0 0 0,6 z m -96,0 a 3,3 0 1 0 0,-6 3,3 0 0 0 0,6 z m 0,16 a 3,3 0 1 0 0,-6 3,3 0 0 0 0,6 z m 16,-32 a 3,3 0 1 0 0,-6 3,3 0 0 0 0,6 z m 96,0 a 3,3 0 1 0 0,-6 3,3 0 0 0 0,6 z M 273,52 a 3,3 0 1 0 0,-6 3,3 0 0 0 0,6 z m 16,-16 a 3,3 0 1 0 0,-6 3,3 0 0 0 0,6 z m -32,0 a 3,3 0 1 0 0,-6 3,3 0 0 0 0,6 z m 0,-16 a 3,3 0 1 0 0,-6 3,3 0 0 0 0,6 z m -16,0 a 3,3 0 1 0 0,-6 3,3 0 0 0 0,6 z m -16,0 a 3,3 0 1 0 0,-6 3,3 0 0 0 0,6 z m -16,0 a 3,3 0 1 0 0,-6 3,3 0 0 0 0,6 z M 49,36 a 3,3 0 1 0 0,-6 3,3 0 0 0 0,6 z m -32,0 a 3,3 0 1 0 0,-6 3,3 0 0 0 0,6 z m 32,16 a 3,3 0 1 0 0,-6 3,3 0 0 0 0,6 z M 33,68 a 3,3 0 1 0 0,-6 3,3 0 0 0 0,6 z M 49,20 a 3,3 0 1 0 0,-6 3,3 0 0 0 0,6 z m 0,240 a 3,3 0 1 0 0,-6 3,3 0 0 0 0,6 z m 16,32 a 3,3 0 1 0 0,-6 3,3 0 0 0 0,6 z M 49,228 a 3,3 0 1 0 0,-6 3,3 0 0 0 0,6 z m 0,16 a 3,3 0 1 0 0,-6 3,3 0 0 0 0,6 z M 33,212 a 3,3 0 1 0 0,-6 3,3 0 0 0 0,6 z M 113,36 a 3,3 0 1 0 0,-6 3,3 0 0 0 0,6 z m 16,0 a 3,3 0 1 0 0,-6 3,3 0 0 0 0,6 z M 113,20 a 3,3 0 1 0 0,-6 3,3 0 0 0 0,6 z m 32,48 a 3,3 0 1 0 0,-6 3,3 0 0 0 0,6 z m 16,-16 a 3,3 0 1 0 0,-6 3,3 0 0 0 0,6 z m 0,-32 a 3,3 0 1 0 0,-6 3,3 0 0 0 0,6 z m 112,176 a 3,3 0 1 0 0,-6 3,3 0 0 0 0,6 z m -16,16 a 3,3 0 1 0 0,-6 3,3 0 0 0 0,6 z m 0,16 a 3,3 0 1 0 0,-6 3,3 0 0 0 0,6 z m 0,16 a 3,3 0 1 0 0,-6 3,3 0 0 0 0,6 z M 17,180 a 3,3 0 1 0 0,-6 3,3 0 0 0 0,6 z m 0,16 a 3,3 0 1 0 0,-6 3,3 0 0 0 0,6 z m 0,-32 a 3,3 0 1 0 0,-6 3,3 0 0 0 0,6 z m 16,0 a 3,3 0 1 0 0,-6 3,3 0 0 0 0,6 z M 17,84 a 3,3 0 1 0 0,-6 3,3 0 0 0 0,6 z m 32,64 a 3,3 0 1 0 0,-6 3,3 0 0 0 0,6 z m 16,-16 a 3,3 0 1 0 0,-6 3,3 0 0 0 0,6 z"
         id="path3969" /></pattern><pattern
       patternUnits="userSpaceOnUse"
       width="304"
       height="304"
       patternTransform="translate(808,388)"
       id="pattern7496"><g
         id="g7494"
         transform="translate(-808,-388)"><rect
           style="fill:#017460;fill-opacity:1;stroke:none;stroke-width:27.366;stroke-dasharray:none;stroke-opacity:0.988235"
           id="rect6764"
           width="304"
           height="304"
           x="808"
           y="388" /><path
           fill="#000000"
           d="m 852.1,612 a 5,5 0 1 1 0,2 H 808 v -2 z m 160,48 a 5,5 0 1 1 0,2 H 890 v -2 z m 57.8,-46 a 5,5 0 1 1 0,-2 h 42.1 v 2 z m 0,16 a 5,5 0 1 1 0,-2 h 42.1 v 2 z m 6.2,-114 a 5,5 0 1 1 0,2 h -86.2 a 5,5 0 1 1 0,-2 z m -256,-48 a 5,5 0 1 1 0,2 H 808 v -2 z m 185.8,34 a 5,5 0 1 1 0,-2 h 86.2 a 5,5 0 1 1 0,2 z M 1066,400.1 a 5,5 0 1 1 -2,0 V 388 h 2 z m -64,208 a 5,5 0 1 1 -2,0 v -54.2 a 5,5 0 1 1 2,0 z m 48,-198.2 V 468 h 62 v 2 h -64 v -60.1 a 5,5 0 1 1 2,0 z m 16,16 V 452 h 46 v 2 h -48 v -28.1 a 5,5 0 1 1 2,0 z m -128,96 V 596 h 16 v 12.1 a 5,5 0 1 1 -2,0 V 598 h -16 v -76.1 a 5,5 0 1 1 2,0 z M 932.1,500 a 5,5 0 1 1 0,2 H 922 v 48 h -28.1 a 5,5 0 1 1 0,-2 H 920 v -48 z m -6.2,130 a 5,5 0 1 1 0,-2 H 984 v -74.1 a 5,5 0 1 1 2,0 V 630 Z m -16,-64 a 5,5 0 1 1 0,-2 H 922 v 48 h 10.1 a 5,5 0 1 1 0,2 H 920 V 566 Z M 874,672.1 a 5,5 0 1 1 -2,0 V 662 h -14 v 30 h -2 v -32 h 18 z M 1044.1,564 a 5,5 0 1 1 0,2 H 1034 v 94 h 48 v 32 h -2 v -30 h -48 v -98 z m 25.8,-30 a 5,5 0 1 1 0,-2 h 12.1 v 44.1 a 5,5 0 1 1 -2,0 V 534 Z m -64,96 a 5,5 0 1 1 0,-2 h 10.1 v -80 h 16 v -14 h -42.1 a 5,5 0 1 1 0,-2 h 44.1 v 18 h -16 v 80 z m 86.2,-210 a 5,5 0 1 1 0,2 H 1080 v -34 h 2 v 32 z M 906,489.9 V 534 h -44.1 a 5,5 0 1 1 0,-2 H 904 v -42.1 a 5,5 0 1 1 2,0 z M 861.9,422 a 5,5 0 1 1 0,-2 H 888 v -32 h 2 v 34 z m 60.1,3.9 V 454 h -32 v 64 h -12.1 a 5,5 0 1 1 0,-2 H 888 v -64 h 32 v -26.1 a 5,5 0 1 1 2,0 z M 909.9,470 a 5,5 0 1 1 0,-2 H 936 v -42.1 a 5,5 0 1 1 2,0 V 470 Z m 16,-64 a 5,5 0 1 1 0,-2 H 954 v 44.1 a 5,5 0 1 1 -2,0 V 406 Z m 102.2,270 a 5,5 0 1 1 0,2 H 906 v 14 h -2 V 676 Z M 1050,537.9 V 548 h 16 v 34 h -16 v 62 h 48 v 48 h -2 v -46 h -48 v -66 h 16 v -30 h -16 v -12.1 a 5,5 0 1 1 2,0 z M 861.9,406 a 5,5 0 1 1 0,-2 H 872 v -14 h -16 v -2 h 18 v 18 z m 112,32 a 5,5 0 1 1 0,-2 h 26.1 v -48 h 50 v 2 h -48 v 48 z m -48,-48 a 5.0009999,5.0009999 0 0 1 -9.8,-2 h 2.07 a 3,3 0 1 0 5.66,0 H 986 v 34 h -18 v -12.1 a 5,5 0 1 1 2,0 V 420 h 14 v -30 z m 0,96 a 5,5 0 1 1 0,-2 H 945 l 32,-32 h 39 v -42.1 a 5,5 0 1 1 2,0 V 454 h -40.17 l -32,32 z m 28.1,90.1 a 5,5 0 1 1 -2,0 V 499.59 L 983.59,468 H 1032 v -58.1 a 5,5 0 1 1 2,0 V 470 H 984.41 L 954,500.41 Z m 16,32 a 5,5 0 1 1 -2,0 V 508.59 L 992.59,484 h 115.51 a 5,5 0 0 1 3.9,-3.9 v 2.07 a 3,3 0 0 0 0,5.66 v 2.07 a 5,5 0 0 1 -3.9,-3.9 H 993.41 L 970,509.41 Z m -144,-64 a 5,5 0 1 1 -2,0 v -3.51 l 48,-48 V 436 h 32 v -48 h 2 v 50 h -32 v 55.41 l -48,48 z m 32,-102.2 v 43.51 l -48,48 V 596 h 26.1 a 5,5 0 1 1 0,2 H 808 v -65.41 l 48,-48 V 441.9 a 5,5 0 1 1 2,0 z m -16,16 v 19.51 l -34,34 v -2.82 l 32,-32 V 457.9 a 5,5 0 1 1 2,0 z M 820.1,420 a 5,5 0 1 1 0,2 h -2.69 l -9.41,9.41 v -2.81 l 8.59,-8.6 z m 265.8,18 a 5,5 0 1 1 0,-2 h 18.69 l 7.41,-7.41 v 2.82 l -6.59,6.59 z m -16,160 a 5,5 0 1 1 0,-2 h 26.1 v -71.41 l 16,-16 v 2.82 l -14,14 V 598 Z m -208,32 a 5,5 0 1 1 0,-2 H 872 V 605.41 L 848.59,582 H 829.9 a 5,5 0 1 1 0,-2 h 19.51 L 874,604.59 V 630 Z m 150.2,14 a 5,5 0 1 1 0,2 H 904 V 589.4 L 864.6,550 h -18.7 a 5,5 0 1 1 0,-2 h 19.5 L 906,588.6 V 644 Z m -150.2,2 a 5,5 0 1 1 0,-2 H 888 V 597.41 L 856.59,566 H 829.9 a 5,5 0 1 1 0,-2 h 27.51 L 890,596.59 V 646 Z M 842,427.8 v 1.61 L 817.41,454 H 808 v -2 h 8.59 L 840,428.59 V 388 h 2 z m -32,260.3 a 5,5 0 0 1 3.9,3.9 h -2.07 A 3,3 0 0 0 808,690.17 V 644 h 18 v 48 h -2 V 646 H 810 Z M 842,629 v 63 h -2 v -62 h -32 v -2 h 34 z M 825,406 h -17 v -2 h 16 v -16 h 2 v 18 z m 273,-2 h 14 v 2 h -16 v -18 h 2 z m -32,273 v 15 h -2 v -14 h -14 v 14 h -2 v -16 h 18 z M 808,480.1 a 5.02,5.02 0 0 1 6,4.9 5,5 0 0 1 -6,4.9 v -2.07 a 3,3 0 1 0 0,-5.66 z M 888,660 h 2 v 32 h -2 z m 37.9,32 h -2.07 a 3,3 0 0 0 -5.66,0 h -2.07 a 5,5 0 0 1 9.8,0 z m -112,-304 a 5.02,5.02 0 0 1 -5.9,5.9 v -2.07 a 3,3 0 0 0 3.83,-3.83 z m 294.2,0 h 2.07 a 3,3 0 0 0 1.83,3.83 v 2.07 a 5,5 0 0 1 -3.9,-5.9 z m 3.9,300.1 v 2.07 a 3,3 0 0 0 -1.83,1.83 h -2.07 a 5,5 0 0 1 3.9,-3.9 z M 905,488 a 3,3 0 1 0 0,-6 3,3 0 0 0 0,6 z m 0,-16 a 3,3 0 1 0 0,-6 3,3 0 0 0 0,6 z m 16,16 a 3,3 0 1 0 0,-6 3,3 0 0 0 0,6 z m 16,16 a 3,3 0 1 0 0,-6 3,3 0 0 0 0,6 z m 0,16 a 3,3 0 1 0 0,-6 3,3 0 0 0 0,6 z m -48,32 a 3,3 0 1 0 0,-6 3,3 0 0 0 0,6 z m 16,16 a 3,3 0 1 0 0,-6 3,3 0 0 0 0,6 z m 32,48 a 3,3 0 1 0 0,-6 3,3 0 0 0 0,6 z m -16,16 a 3,3 0 1 0 0,-6 3,3 0 0 0 0,6 z m 32,-16 a 3,3 0 1 0 0,-6 3,3 0 0 0 0,6 z m 0,-32 a 3,3 0 1 0 0,-6 3,3 0 0 0 0,6 z m 16,32 a 3,3 0 1 0 0,-6 3,3 0 0 0 0,6 z m 32,16 a 3,3 0 1 0 0,-6 3,3 0 0 0 0,6 z m 0,-16 a 3,3 0 1 0 0,-6 3,3 0 0 0 0,6 z m -16,-64 a 3,3 0 1 0 0,-6 3,3 0 0 0 0,6 z m 16,0 a 3,3 0 1 0 0,-6 3,3 0 0 0 0,6 z m 16,96 a 3,3 0 1 0 0,-6 3,3 0 0 0 0,6 z m 0,16 a 3,3 0 1 0 0,-6 3,3 0 0 0 0,6 z m 16,16 a 3,3 0 1 0 0,-6 3,3 0 0 0 0,6 z m 16,-144 a 3,3 0 1 0 0,-6 3,3 0 0 0 0,6 z m 0,32 a 3,3 0 1 0 0,-6 3,3 0 0 0 0,6 z m 16,-32 a 3,3 0 1 0 0,-6 3,3 0 0 0 0,6 z m 16,-16 a 3,3 0 1 0 0,-6 3,3 0 0 0 0,6 z m -96,0 a 3,3 0 1 0 0,-6 3,3 0 0 0 0,6 z m 0,16 a 3,3 0 1 0 0,-6 3,3 0 0 0 0,6 z m 16,-32 a 3,3 0 1 0 0,-6 3,3 0 0 0 0,6 z m 96,0 a 3,3 0 1 0 0,-6 3,3 0 0 0 0,6 z m -16,-64 a 3,3 0 1 0 0,-6 3,3 0 0 0 0,6 z m 16,-16 a 3,3 0 1 0 0,-6 3,3 0 0 0 0,6 z m -32,0 a 3,3 0 1 0 0,-6 3,3 0 0 0 0,6 z m 0,-16 a 3,3 0 1 0 0,-6 3,3 0 0 0 0,6 z m -16,0 a 3,3 0 1 0 0,-6 3,3 0 0 0 0,6 z m -16,0 a 3,3 0 1 0 0,-6 3,3 0 0 0 0,6 z m -16,0 a 3,3 0 1 0 0,-6 3,3 0 0 0 0,6 z m -160,16 a 3,3 0 1 0 0,-6 3,3 0 0 0 0,6 z m -32,0 a 3,3 0 1 0 0,-6 3,3 0 0 0 0,6 z m 32,16 a 3,3 0 1 0 0,-6 3,3 0 0 0 0,6 z m -16,16 a 3,3 0 1 0 0,-6 3,3 0 0 0 0,6 z m 16,-48 a 3,3 0 1 0 0,-6 3,3 0 0 0 0,6 z m 0,240 a 3,3 0 1 0 0,-6 3,3 0 0 0 0,6 z m 16,32 a 3,3 0 1 0 0,-6 3,3 0 0 0 0,6 z m -16,-64 a 3,3 0 1 0 0,-6 3,3 0 0 0 0,6 z m 0,16 a 3,3 0 1 0 0,-6 3,3 0 0 0 0,6 z m -16,-32 a 3,3 0 1 0 0,-6 3,3 0 0 0 0,6 z m 80,-176 a 3,3 0 1 0 0,-6 3,3 0 0 0 0,6 z m 16,0 a 3,3 0 1 0 0,-6 3,3 0 0 0 0,6 z m -16,-16 a 3,3 0 1 0 0,-6 3,3 0 0 0 0,6 z m 32,48 a 3,3 0 1 0 0,-6 3,3 0 0 0 0,6 z m 16,-16 a 3,3 0 1 0 0,-6 3,3 0 0 0 0,6 z m 0,-32 a 3,3 0 1 0 0,-6 3,3 0 0 0 0,6 z m 112,176 a 3,3 0 1 0 0,-6 3,3 0 0 0 0,6 z m -16,16 a 3,3 0 1 0 0,-6 3,3 0 0 0 0,6 z m 0,16 a 3,3 0 1 0 0,-6 3,3 0 0 0 0,6 z m 0,16 a 3,3 0 1 0 0,-6 3,3 0 0 0 0,6 z M 825,568 a 3,3 0 1 0 0,-6 3,3 0 0 0 0,6 z m 0,16 a 3,3 0 1 0 0,-6 3,3 0 0 0 0,6 z m 0,-32 a 3,3 0 1 0 0,-6 3,3 0 0 0 0,6 z m 16,0 a 3,3 0 1 0 0,-6 3,3 0 0 0 0,6 z m -16,-80 a 3,3 0 1 0 0,-6 3,3 0 0 0 0,6 z m 32,64 a 3,3 0 1 0 0,-6 3,3 0 0 0 0,6 z m 16,-16 a 3,3 0 1 0 0,-6 3,3 0 0 0 0,6 z"
           id="path5567"
           style="fill:#cefbf2;fill-opacity:1" /></g></pattern><pattern
       patternUnits="userSpaceOnUse"
       width="304"
       height="304"
       patternTransform="translate(2272.3737,16.09555)"
       id="pattern7619"><rect
         style="fill:#017460;fill-opacity:1;stroke:none;stroke-width:27.366;stroke-dasharray:none;stroke-opacity:0.988235"
         id="rect7613"
         width="304"
         height="304"
         x="0"
         y="0" /><path
         fill="#000000"
         d="m 44.1,224 a 5,5 0 1 1 0,2 H 0 v -2 z m 160,48 a 5,5 0 1 1 0,2 H 82 v -2 z m 57.8,-46 a 5,5 0 1 1 0,-2 H 304 v 2 z m 0,16 a 5,5 0 1 1 0,-2 H 304 v 2 z m 6.2,-114 a 5,5 0 1 1 0,2 h -86.2 a 5,5 0 1 1 0,-2 z M 12.1,80 a 5,5 0 1 1 0,2 H 0 v -2 z m 185.8,34 a 5,5 0 1 1 0,-2 h 86.2 a 5,5 0 1 1 0,2 z M 258,12.1 a 5,5 0 1 1 -2,0 V 0 h 2 z m -64,208 a 5,5 0 1 1 -2,0 v -54.2 a 5,5 0 1 1 2,0 z M 242,21.9 V 80 h 62 v 2 H 240 V 21.9 a 5,5 0 1 1 2,0 z m 16,16 V 64 h 46 v 2 H 256 V 37.9 a 5,5 0 1 1 2,0 z m -128,96 V 208 h 16 v 12.1 a 5,5 0 1 1 -2,0 V 210 h -16 v -76.1 a 5,5 0 1 1 2,0 z M 124.1,112 a 5,5 0 1 1 0,2 H 114 v 48 H 85.9 a 5,5 0 1 1 0,-2 H 112 v -48 z m -6.2,130 a 5,5 0 1 1 0,-2 H 176 v -74.1 a 5,5 0 1 1 2,0 V 242 Z m -16,-64 a 5,5 0 1 1 0,-2 H 114 v 48 h 10.1 a 5,5 0 1 1 0,2 H 112 V 178 Z M 66,284.1 a 5,5 0 1 1 -2,0 V 274 H 50 v 30 H 48 V 272 H 66 Z M 236.1,176 a 5,5 0 1 1 0,2 H 226 v 94 h 48 v 32 h -2 v -30 h -48 v -98 z m 25.8,-30 a 5,5 0 1 1 0,-2 H 274 v 44.1 a 5,5 0 1 1 -2,0 V 146 Z m -64,96 a 5,5 0 1 1 0,-2 H 208 v -80 h 16 v -14 h -42.1 a 5,5 0 1 1 0,-2 H 226 v 18 h -16 v 80 z M 284.1,32 a 5,5 0 1 1 0,2 H 272 V 0 h 2 V 32 Z M 98,101.9 V 146 H 53.9 a 5,5 0 1 1 0,-2 H 96 v -42.1 a 5,5 0 1 1 2,0 z M 53.9,34 a 5,5 0 1 1 0,-2 H 80 V 0 h 2 V 34 Z M 114,37.9 V 66 H 82 v 64 H 69.9 a 5,5 0 1 1 0,-2 H 80 V 64 h 32 V 37.9 a 5,5 0 1 1 2,0 z M 101.9,82 a 5,5 0 1 1 0,-2 H 128 V 37.9 a 5,5 0 1 1 2,0 V 82 Z m 16,-64 a 5,5 0 1 1 0,-2 H 146 v 44.1 a 5,5 0 1 1 -2,0 V 18 Z m 102.2,270 a 5,5 0 1 1 0,2 H 98 v 14 H 96 V 288 Z M 242,149.9 V 160 h 16 v 34 h -16 v 62 h 48 v 48 h -2 v -46 h -48 v -66 h 16 v -30 h -16 v -12.1 a 5,5 0 1 1 2,0 z M 53.9,18 a 5,5 0 1 1 0,-2 H 64 V 2 H 48 V 0 h 18 v 18 z m 112,32 a 5,5 0 1 1 0,-2 H 192 V 0 h 50 v 2 h -48 v 48 z m -48,-48 a 5.0009999,5.0009999 0 0 1 -9.8,-2 h 2.07 a 3,3 0 1 0 5.66,0 H 178 V 34 H 160 V 21.9 a 5,5 0 1 1 2,0 V 32 h 14 V 2 Z m 0,96 a 5,5 0 1 1 0,-2 H 137 l 32,-32 h 39 V 21.9 a 5,5 0 1 1 2,0 V 66 h -40.17 l -32,32 z m 28.1,90.1 a 5,5 0 1 1 -2,0 V 111.59 L 175.59,80 H 224 V 21.9 a 5,5 0 1 1 2,0 V 82 H 176.41 L 146,112.41 Z m 16,32 a 5,5 0 1 1 -2,0 V 120.59 L 184.59,96 H 300.1 a 5,5 0 0 1 3.9,-3.9 v 2.07 a 3,3 0 0 0 0,5.66 v 2.07 A 5,5 0 0 1 300.1,98 H 185.41 L 162,121.41 Z m -144,-64 a 5,5 0 1 1 -2,0 v -3.51 l 48,-48 V 48 H 96 V 0 h 2 V 50 H 66 v 55.41 l -48,48 z M 50,53.9 v 43.51 l -48,48 V 208 h 26.1 a 5,5 0 1 1 0,2 H 0 v -65.41 l 48,-48 V 53.9 a 5,5 0 1 1 2,0 z m -16,16 v 19.51 l -34,34 v -2.82 l 32,-32 V 69.9 a 5,5 0 1 1 2,0 z M 12.1,32 a 5,5 0 1 1 0,2 H 9.41 L 0,43.41 V 40.6 L 8.59,32 Z m 265.8,18 a 5,5 0 1 1 0,-2 h 18.69 L 304,40.59 v 2.82 L 297.41,50 Z m -16,160 a 5,5 0 1 1 0,-2 H 288 v -71.41 l 16,-16 v 2.82 l -14,14 V 210 Z m -208,32 a 5,5 0 1 1 0,-2 H 64 V 217.41 L 40.59,194 H 21.9 a 5,5 0 1 1 0,-2 H 41.41 L 66,216.59 V 242 Z m 150.2,14 a 5,5 0 1 1 0,2 H 96 V 201.4 L 56.6,162 H 37.9 a 5,5 0 1 1 0,-2 H 57.4 L 98,200.6 V 256 Z m -150.2,2 a 5,5 0 1 1 0,-2 H 80 V 209.41 L 48.59,178 H 21.9 a 5,5 0 1 1 0,-2 H 49.41 L 82,208.59 V 258 Z M 34,39.8 v 1.61 L 9.41,66 H 0 V 64 H 8.59 L 32,40.59 V 0 h 2 z M 2,300.1 A 5,5 0 0 1 5.9,304 H 3.83 A 3,3 0 0 0 0,302.17 V 256 h 18 v 48 H 16 V 258 H 2 Z M 34,241 v 63 H 32 V 242 H 0 v -2 H 34 Z M 17,18 H 0 V 16 H 16 V 0 h 2 v 18 z m 273,-2 h 14 v 2 H 288 V 0 h 2 z m -32,273 v 15 h -2 v -14 h -14 v 14 h -2 v -16 h 18 z M 0,92.1 A 5.02,5.02 0 0 1 6,97 5,5 0 0 1 0,101.9 V 99.83 A 3,3 0 1 0 0,94.17 Z M 80,272 h 2 v 32 h -2 z m 37.9,32 h -2.07 a 3,3 0 0 0 -5.66,0 h -2.07 a 5,5 0 0 1 9.8,0 z M 5.9,0 A 5.02,5.02 0 0 1 0,5.9 V 3.83 A 3,3 0 0 0 3.83,0 Z m 294.2,0 h 2.07 A 3,3 0 0 0 304,3.83 V 5.9 A 5,5 0 0 1 300.1,0 Z m 3.9,300.1 v 2.07 a 3,3 0 0 0 -1.83,1.83 h -2.07 a 5,5 0 0 1 3.9,-3.9 z M 97,100 a 3,3 0 1 0 0,-6 3,3 0 0 0 0,6 z m 0,-16 a 3,3 0 1 0 0,-6 3,3 0 0 0 0,6 z m 16,16 a 3,3 0 1 0 0,-6 3,3 0 0 0 0,6 z m 16,16 a 3,3 0 1 0 0,-6 3,3 0 0 0 0,6 z m 0,16 a 3,3 0 1 0 0,-6 3,3 0 0 0 0,6 z m -48,32 a 3,3 0 1 0 0,-6 3,3 0 0 0 0,6 z m 16,16 a 3,3 0 1 0 0,-6 3,3 0 0 0 0,6 z m 32,48 a 3,3 0 1 0 0,-6 3,3 0 0 0 0,6 z m -16,16 a 3,3 0 1 0 0,-6 3,3 0 0 0 0,6 z m 32,-16 a 3,3 0 1 0 0,-6 3,3 0 0 0 0,6 z m 0,-32 a 3,3 0 1 0 0,-6 3,3 0 0 0 0,6 z m 16,32 a 3,3 0 1 0 0,-6 3,3 0 0 0 0,6 z m 32,16 a 3,3 0 1 0 0,-6 3,3 0 0 0 0,6 z m 0,-16 a 3,3 0 1 0 0,-6 3,3 0 0 0 0,6 z m -16,-64 a 3,3 0 1 0 0,-6 3,3 0 0 0 0,6 z m 16,0 a 3,3 0 1 0 0,-6 3,3 0 0 0 0,6 z m 16,96 a 3,3 0 1 0 0,-6 3,3 0 0 0 0,6 z m 0,16 a 3,3 0 1 0 0,-6 3,3 0 0 0 0,6 z m 16,16 a 3,3 0 1 0 0,-6 3,3 0 0 0 0,6 z m 16,-144 a 3,3 0 1 0 0,-6 3,3 0 0 0 0,6 z m 0,32 a 3,3 0 1 0 0,-6 3,3 0 0 0 0,6 z m 16,-32 a 3,3 0 1 0 0,-6 3,3 0 0 0 0,6 z m 16,-16 a 3,3 0 1 0 0,-6 3,3 0 0 0 0,6 z m -96,0 a 3,3 0 1 0 0,-6 3,3 0 0 0 0,6 z m 0,16 a 3,3 0 1 0 0,-6 3,3 0 0 0 0,6 z m 16,-32 a 3,3 0 1 0 0,-6 3,3 0 0 0 0,6 z m 96,0 a 3,3 0 1 0 0,-6 3,3 0 0 0 0,6 z M 273,52 a 3,3 0 1 0 0,-6 3,3 0 0 0 0,6 z m 16,-16 a 3,3 0 1 0 0,-6 3,3 0 0 0 0,6 z m -32,0 a 3,3 0 1 0 0,-6 3,3 0 0 0 0,6 z m 0,-16 a 3,3 0 1 0 0,-6 3,3 0 0 0 0,6 z m -16,0 a 3,3 0 1 0 0,-6 3,3 0 0 0 0,6 z m -16,0 a 3,3 0 1 0 0,-6 3,3 0 0 0 0,6 z m -16,0 a 3,3 0 1 0 0,-6 3,3 0 0 0 0,6 z M 49,36 a 3,3 0 1 0 0,-6 3,3 0 0 0 0,6 z m -32,0 a 3,3 0 1 0 0,-6 3,3 0 0 0 0,6 z m 32,16 a 3,3 0 1 0 0,-6 3,3 0 0 0 0,6 z M 33,68 a 3,3 0 1 0 0,-6 3,3 0 0 0 0,6 z M 49,20 a 3,3 0 1 0 0,-6 3,3 0 0 0 0,6 z m 0,240 a 3,3 0 1 0 0,-6 3,3 0 0 0 0,6 z m 16,32 a 3,3 0 1 0 0,-6 3,3 0 0 0 0,6 z M 49,228 a 3,3 0 1 0 0,-6 3,3 0 0 0 0,6 z m 0,16 a 3,3 0 1 0 0,-6 3,3 0 0 0 0,6 z M 33,212 a 3,3 0 1 0 0,-6 3,3 0 0 0 0,6 z M 113,36 a 3,3 0 1 0 0,-6 3,3 0 0 0 0,6 z m 16,0 a 3,3 0 1 0 0,-6 3,3 0 0 0 0,6 z M 113,20 a 3,3 0 1 0 0,-6 3,3 0 0 0 0,6 z m 32,48 a 3,3 0 1 0 0,-6 3,3 0 0 0 0,6 z m 16,-16 a 3,3 0 1 0 0,-6 3,3 0 0 0 0,6 z m 0,-32 a 3,3 0 1 0 0,-6 3,3 0 0 0 0,6 z m 112,176 a 3,3 0 1 0 0,-6 3,3 0 0 0 0,6 z m -16,16 a 3,3 0 1 0 0,-6 3,3 0 0 0 0,6 z m 0,16 a 3,3 0 1 0 0,-6 3,3 0 0 0 0,6 z m 0,16 a 3,3 0 1 0 0,-6 3,3 0 0 0 0,6 z M 17,180 a 3,3 0 1 0 0,-6 3,3 0 0 0 0,6 z m 0,16 a 3,3 0 1 0 0,-6 3,3 0 0 0 0,6 z m 0,-32 a 3,3 0 1 0 0,-6 3,3 0 0 0 0,6 z m 16,0 a 3,3 0 1 0 0,-6 3,3 0 0 0 0,6 z M 17,84 a 3,3 0 1 0 0,-6 3,3 0 0 0 0,6 z m 32,64 a 3,3 0 1 0 0,-6 3,3 0 0 0 0,6 z m 16,-16 a 3,3 0 1 0 0,-6 3,3 0 0 0 0,6 z"
         id="path7615"
         style="fill:#05876a;fill-opacity:1" /></pattern><style
       id="style8754">.cls-1{fill:#cefbf2;}</style><pattern
       patternUnits="userSpaceOnUse"
       width="304.00011"
       height="304"
       patternTransform="translate(2241.0973,97.219551)"
       id="pattern10936"><g
         id="g7617"
         transform="translate(-885.9866,-389.58984)"><rect
           style="fill:none;stroke:none"
           width="304"
           height="304"
           x="885.98663"
           y="389.58984"
           id="rect7623" /></g><rect
         style="fill:#cefbf2;fill-opacity:1;stroke:none;stroke-width:27.366;stroke-dasharray:none;stroke-opacity:0.988235"
         id="rect10204"
         width="304"
         height="304"
         x="0.00011210937"
         y="0" /><path
         fill="#000000"
         d="m 44.1,224 a 5,5 0 1 1 0,2 H 0 v -2 z m 160,48 a 5,5 0 1 1 0,2 H 82 v -2 z m 57.8,-46 a 5,5 0 1 1 0,-2 H 304 v 2 z m 0,16 a 5,5 0 1 1 0,-2 H 304 v 2 z m 6.2,-114 a 5,5 0 1 1 0,2 h -86.2 a 5,5 0 1 1 0,-2 z M 12.1,79.999999 a 5,5 0 1 1 0,2 H 0 v -2 z M 197.9,114 a 5,5 0 1 1 0,-2 h 86.2 a 5,5 0 1 1 0,2 z M 258,12.099999 a 5,5 0 1 1 -2,0 V 9.1357421e-7 h 2 z M 194,220.1 a 5,5 0 1 1 -2,0 v -54.2 a 5,5 0 1 1 2,0 z M 242,21.899999 v 58.1 h 62 v 2 h -64 v -60.1 a 5,5 0 1 1 2,0 z m 16,16 v 26.1 h 46 v 2 h -48 v -28.1 a 5,5 0 1 1 2,0 z M 130,133.9 V 208 h 16 v 12.1 a 5,5 0 1 1 -2,0 V 210 h -16 v -76.1 a 5,5 0 1 1 2,0 z M 124.1,112 a 5,5 0 1 1 0,2 H 114 v 48 H 85.9 a 5,5 0 1 1 0,-2 H 112 v -48 z m -6.2,130 a 5,5 0 1 1 0,-2 H 176 v -74.1 a 5,5 0 1 1 2,0 V 242 Z m -16,-64 a 5,5 0 1 1 0,-2 H 114 v 48 h 10.1 a 5,5 0 1 1 0,2 H 112 V 178 Z M 66,284.1 a 5,5 0 1 1 -2,0 V 274 H 50 v 30 H 48 V 272 H 66 Z M 236.1,176 a 5,5 0 1 1 0,2 H 226 v 94 h 48 v 32 h -2 v -30 h -48 v -98 z m 25.8,-30 a 5,5 0 1 1 0,-2 H 274 v 44.1 a 5,5 0 1 1 -2,0 V 146 Z m -64,96 a 5,5 0 1 1 0,-2 H 208 v -80 h 16 v -14 h -42.1 a 5,5 0 1 1 0,-2 H 226 v 18 h -16 v 80 z M 284.1,31.999999 a 5,5 0 1 1 0,2 H 272 V 9.1357421e-7 h 2 V 31.999999 Z M 98,101.9 V 146 H 53.9 a 5,5 0 1 1 0,-2 H 96 v -42.1 a 5,5 0 1 1 2,0 z M 53.9,33.999999 a 5,5 0 1 1 0,-2 H 80 V 9.1357421e-7 h 2 V 33.999999 Z m 60.1,3.9 v 28.1 H 82 V 130 H 69.9 a 5,5 0 1 1 0,-2 H 80 V 63.999999 h 32 v -26.1 a 5,5 0 1 1 2,0 z m -12.1,44.1 a 5,5 0 1 1 0,-2 H 128 v -42.1 a 5,5 0 1 1 2,0 v 44.1 z m 16,-64 a 5,5 0 1 1 0,-2 H 146 v 44.1 a 5,5 0 1 1 -2,0 v -42.1 z M 220.1,288 a 5,5 0 1 1 0,2 H 98 v 14 H 96 V 288 Z M 242,149.9 V 160 h 16 v 34 h -16 v 62 h 48 v 48 h -2 v -46 h -48 v -66 h 16 v -30 h -16 v -12.1 a 5,5 0 1 1 2,0 z M 53.9,17.999999 a 5,5 0 1 1 0,-2 H 64 V 2.0000009 H 48 V 9.1357421e-7 H 66 V 17.999999 Z m 112,32 a 5,5 0 1 1 0,-2 H 192 V 9.1357421e-7 h 50 V 2.0000009 H 194 V 49.999999 Z M 117.9,2.0000009 A 5.0009999,5.0009999 0 0 1 108.1,9.1357424e-7 h 2.07 a 3,3 0 1 0 5.66,0 H 178 V 33.999999 h -18 v -12.1 a 5,5 0 1 1 2,0 v 10.1 h 14 V 2.0000009 Z m 0,95.9999981 a 5,5 0 1 1 0,-2 H 137 l 32,-32 h 39 v -42.1 a 5,5 0 1 1 2,0 v 44.1 h -40.17 l -32,32 z M 146,188.1 a 5,5 0 1 1 -2,0 V 111.59 L 175.59,79.999999 H 224 v -58.1 a 5,5 0 1 1 2,0 v 60.1 H 176.41 L 146,112.41 Z m 16,32 a 5,5 0 1 1 -2,0 V 120.59 L 184.59,95.999999 H 300.1 a 5,5 0 0 1 3.9,-3.9 v 2.07 a 3,3 0 0 0 0,5.66 V 101.9 a 5,5 0 0 1 -3.9,-3.900001 H 185.41 L 162,121.41 Z m -144,-64 a 5,5 0 1 1 -2,0 v -3.51 l 48,-48 V 47.999999 H 96 V 9.1357421e-7 h 2 V 49.999999 H 66 V 105.41 l -48,48 z M 50,53.899999 v 43.51 L 2,145.41 V 208 h 26.1 a 5,5 0 1 1 0,2 H 0 V 144.59 L 48,96.589999 v -42.69 a 5,5 0 1 1 2,0 z m -16,16 v 19.51 L 0,123.41 v -2.82 L 32,88.589999 v -18.69 a 5,5 0 1 1 2,0 z m -21.9,-37.9 a 5,5 0 1 1 0,2 H 9.41 l -9.41,9.41 v -2.81 l 8.59,-8.6 z m 265.8,18 a 5,5 0 1 1 0,-2 h 18.69 l 7.41,-7.41 v 2.82 l -6.59,6.59 z M 261.9,210 a 5,5 0 1 1 0,-2 H 288 v -71.41 l 16,-16 v 2.82 l -14,14 V 210 Z m -208,32 a 5,5 0 1 1 0,-2 H 64 V 217.41 L 40.59,194 H 21.9 a 5,5 0 1 1 0,-2 H 41.41 L 66,216.59 V 242 Z m 150.2,14 a 5,5 0 1 1 0,2 H 96 V 201.4 L 56.6,162 H 37.9 a 5,5 0 1 1 0,-2 H 57.4 L 98,200.6 V 256 Z m -150.2,2 a 5,5 0 1 1 0,-2 H 80 V 209.41 L 48.59,178 H 21.9 a 5,5 0 1 1 0,-2 H 49.41 L 82,208.59 V 258 Z M 34,39.799999 v 1.61 l -24.59,24.59 H 0 v -2 H 8.59 L 32,40.589999 V 9.1357421e-7 h 2 z M 2,300.1 A 5,5 0 0 1 5.9,304 H 3.83 A 3,3 0 0 0 0,302.17 V 256 h 18 v 48 H 16 V 258 H 2 Z M 34,241 v 63 H 32 V 242 H 0 v -2 H 34 Z M 17,17.999999 H 0 v -2 H 16 V 9.1357421e-7 h 2 V 17.999999 Z m 273,-2 h 14 v 2 H 288 V 9.1357421e-7 h 2 z M 258,289 v 15 h -2 v -14 h -14 v 14 h -2 v -16 h 18 z M 0,92.099999 a 5.02,5.02 0 0 1 6,4.9 A 5,5 0 0 1 0,101.9 v -2.070001 a 3,3 0 1 0 0,-5.66 z M 80,272 h 2 v 32 h -2 z m 37.9,32 h -2.07 a 3,3 0 0 0 -5.66,0 h -2.07 a 5,5 0 0 1 9.8,0 z M 5.9,9.1357424e-7 A 5.02,5.02 0 0 1 0,5.8999989 v -2.07 A 3,3 0 0 0 3.83,9.1357424e-7 Z m 294.2,0 h 2.07 A 3,3 0 0 0 304,3.8299989 v 2.07 A 5,5 0 0 1 300.1,9.1357424e-7 Z M 304,300.1 v 2.07 a 3,3 0 0 0 -1.83,1.83 h -2.07 a 5,5 0 0 1 3.9,-3.9 z M 97,99.999999 a 3,3 0 1 0 0,-6 3,3 0 0 0 0,6 z m 0,-16 a 3,3 0 1 0 0,-6 3,3 0 0 0 0,6 z m 16,16 a 3,3 0 1 0 0,-6 3,3 0 0 0 0,6 z M 129,116 a 3,3 0 1 0 0,-6 3,3 0 0 0 0,6 z m 0,16 a 3,3 0 1 0 0,-6 3,3 0 0 0 0,6 z m -48,32 a 3,3 0 1 0 0,-6 3,3 0 0 0 0,6 z m 16,16 a 3,3 0 1 0 0,-6 3,3 0 0 0 0,6 z m 32,48 a 3,3 0 1 0 0,-6 3,3 0 0 0 0,6 z m -16,16 a 3,3 0 1 0 0,-6 3,3 0 0 0 0,6 z m 32,-16 a 3,3 0 1 0 0,-6 3,3 0 0 0 0,6 z m 0,-32 a 3,3 0 1 0 0,-6 3,3 0 0 0 0,6 z m 16,32 a 3,3 0 1 0 0,-6 3,3 0 0 0 0,6 z m 32,16 a 3,3 0 1 0 0,-6 3,3 0 0 0 0,6 z m 0,-16 a 3,3 0 1 0 0,-6 3,3 0 0 0 0,6 z m -16,-64 a 3,3 0 1 0 0,-6 3,3 0 0 0 0,6 z m 16,0 a 3,3 0 1 0 0,-6 3,3 0 0 0 0,6 z m 16,96 a 3,3 0 1 0 0,-6 3,3 0 0 0 0,6 z m 0,16 a 3,3 0 1 0 0,-6 3,3 0 0 0 0,6 z m 16,16 a 3,3 0 1 0 0,-6 3,3 0 0 0 0,6 z m 16,-144 a 3,3 0 1 0 0,-6 3,3 0 0 0 0,6 z m 0,32 a 3,3 0 1 0 0,-6 3,3 0 0 0 0,6 z m 16,-32 a 3,3 0 1 0 0,-6 3,3 0 0 0 0,6 z m 16,-16 a 3,3 0 1 0 0,-6 3,3 0 0 0 0,6 z m -96,0 a 3,3 0 1 0 0,-6 3,3 0 0 0 0,6 z m 0,16 a 3,3 0 1 0 0,-6 3,3 0 0 0 0,6 z m 16,-32 a 3,3 0 1 0 0,-6 3,3 0 0 0 0,6 z m 96,0 a 3,3 0 1 0 0,-6 3,3 0 0 0 0,6 z M 273,51.999999 a 3,3 0 1 0 0,-6 3,3 0 0 0 0,6 z m 16,-16 a 3,3 0 1 0 0,-6 3,3 0 0 0 0,6 z m -32,0 a 3,3 0 1 0 0,-6 3,3 0 0 0 0,6 z m 0,-16 a 3,3 0 1 0 0,-6 3,3 0 0 0 0,6 z m -16,0 a 3,3 0 1 0 0,-6 3,3 0 0 0 0,6 z m -16,0 a 3,3 0 1 0 0,-6 3,3 0 0 0 0,6 z m -16,0 a 3,3 0 1 0 0,-6 3,3 0 0 0 0,6 z m -160,16 a 3,3 0 1 0 0,-6 3,3 0 0 0 0,6 z m -32,0 a 3,3 0 1 0 0,-6 3,3 0 0 0 0,6 z m 32,16 a 3,3 0 1 0 0,-6 3,3 0 0 0 0,6 z m -16,16 a 3,3 0 1 0 0,-6 3,3 0 0 0 0,6 z m 16,-48 a 3,3 0 1 0 0,-6 3,3 0 0 0 0,6 z M 49,260 a 3,3 0 1 0 0,-6 3,3 0 0 0 0,6 z m 16,32 a 3,3 0 1 0 0,-6 3,3 0 0 0 0,6 z M 49,228 a 3,3 0 1 0 0,-6 3,3 0 0 0 0,6 z m 0,16 a 3,3 0 1 0 0,-6 3,3 0 0 0 0,6 z M 33,212 a 3,3 0 1 0 0,-6 3,3 0 0 0 0,6 z M 113,35.999999 a 3,3 0 1 0 0,-6 3,3 0 0 0 0,6 z m 16,0 a 3,3 0 1 0 0,-6 3,3 0 0 0 0,6 z m -16,-16 a 3,3 0 1 0 0,-6 3,3 0 0 0 0,6 z m 32,48 a 3,3 0 1 0 0,-6 3,3 0 0 0 0,6 z m 16,-16 a 3,3 0 1 0 0,-6 3,3 0 0 0 0,6 z m 0,-32 a 3,3 0 1 0 0,-6 3,3 0 0 0 0,6 z M 273,196 a 3,3 0 1 0 0,-6 3,3 0 0 0 0,6 z m -16,16 a 3,3 0 1 0 0,-6 3,3 0 0 0 0,6 z m 0,16 a 3,3 0 1 0 0,-6 3,3 0 0 0 0,6 z m 0,16 a 3,3 0 1 0 0,-6 3,3 0 0 0 0,6 z M 17,180 a 3,3 0 1 0 0,-6 3,3 0 0 0 0,6 z m 0,16 a 3,3 0 1 0 0,-6 3,3 0 0 0 0,6 z m 0,-32 a 3,3 0 1 0 0,-6 3,3 0 0 0 0,6 z m 16,0 a 3,3 0 1 0 0,-6 3,3 0 0 0 0,6 z M 17,83.999999 a 3,3 0 1 0 0,-6 3,3 0 0 0 0,6 z M 49,148 a 3,3 0 1 0 0,-6 3,3 0 0 0 0,6 z m 16,-16 a 3,3 0 1 0 0,-6 3,3 0 0 0 0,6 z"
         id="path10206"
         style="fill:#baf0e8;fill-opacity:1" /></pattern></defs><g
     inkscape:label="Ebene 1"
     inkscape:groupmode="layer"
     id="layer1"><rect
       style="fill:url(#pattern10936);fill-opacity:1.0;stroke:none;stroke-width:83.2644;stroke-dasharray:none;stroke-opacity:0.988235"
       id="rect7555"
       width="1920"
       height="1080"
       x="0"
       y="0" /><rect
       style="fill:none;stroke:none;stroke-width:6.7093;stroke-opacity:0.988235;fill-opacity:1"
       id="rect231"
       width="1920"
       height="1080"
       x="0.059739176"
       y="1.3468571" /><rect
       style="fill:none;stroke:none;stroke-width:5.53701;stroke-opacity:0.988235"
       id="rect4398"
       width="424.99371"
       height="242.76138"
       x="18.686359"
       y="32.941139" /><rect
       style="fill:none;stroke:none"
       width="304"
       height="304"
       x="2434.907"
       y="-191.58762"
       id="rect7501" /><rect
       style="stroke:none;fill:url(#pattern10936)"
       width="304.00011"
       height="304"
       x="2241.0973"
       y="97.219551"
       id="rect10942" /><g
       id="g8901"
       transform="matrix(0.31971665,0,0,0.31971665,1345.8248,909.18648)"><path
         class="cls-1"
         d="m 350.21,366.21 h -265 A 11.2,11.2 0 0 1 74,355 V 90 A 11.2,11.2 0 0 1 85.18,78.79 h 265 A 11.2,11.2 0 0 1 361.4,90 v 265 a 11.2,11.2 0 0 1 -11.19,11.21 z M 86.33,353.86 H 349.06 V 91.14 H 86.33 Z"
         id="path8760"
         style="fill:#017460;fill-opacity:1" /><path
         id="path22-7-0"
         class="cls-1"
         d="m 171.28,265.52 a 4.47,4.47 0 0 1 1.31,3.57 v 33.65 c 0,3 -1.53,4.54 -4.57,4.57 l -28.65,-0.05 c -3,0 -4.53,-1.5 -4.53,-4.52 v -18.26 a 1.55,1.55 0 0 1 0.18,-0.7 l -0.05,-0.13 h -0.13 v -14.56 q 0,-4.57 4.53,-4.53 h 28.65 a 5.07,5.07 0 0 1 3.26,1 m 130.19,-103 c 0.06,3.08 -1.45,4.64 -4.52,4.7 l -28.62,-0.09 c -3.13,0 -4.72,-1.53 -4.78,-4.61 v -18.3 q 0.09,-4.6 4.78,-4.61 l 28.79,0.09 q 4.43,0.08 4.34,4.52 l 0.05,18.3 m -80.88,0 v -18.3 q 0.09,-4.6 4.79,-4.61 h 28.48 q 4.69,0 4.65,4.65 v 18.3 c 0.06,3.08 -1.48,4.61 -4.61,4.61 h -28.57 c -3.13,0 -4.72,-1.53 -4.78,-4.61 m -5.13,0 c 0,3.11 -1.48,4.64 -4.52,4.61 h -28.61 c -3.05,0 -4.58,-1.5 -4.61,-4.61 l -0.05,-18.3 q 0.09,-4.6 4.61,-4.61 H 211 c 3,0 4.49,1.54 4.44,4.61 v 18.3 m -76.09,-23 H 168 q 4.56,0 4.44,4.61 v 18.3 c 0.06,3.08 -1.42,4.61 -4.44,4.61 h -28.63 c -3,0 -4.55,-1.53 -4.61,-4.61 v -18.3 q 0.09,-4.6 4.66,-4.65 m 162.14,98.05 v 18.3 q 0,4.53 -4.6,4.61 l -157.58,-0.08 q -4.53,0 -4.53,-4.53 v -18.3 a 1.67,1.67 0 0 1 0.18,-0.79 c -0.12,-0.64 -0.2,-1.24 -0.26,-1.82 l 0.08,-38.36 A 11.12,11.12 0 0 1 135,195 a 4.15,4.15 0 0 1 -0.13,-1 v -18.23 c -0.05,-3.07 1.42,-4.61 4.44,-4.61 H 168 q 4.52,0 4.61,4.61 V 194 c 0,0.34 0,0.68 -0.05,1 0,0.55 0.05,1.08 0.05,1.6 L 172.5,233 h 91.05 v -34.4 h -81.27 q -4.51,0 -4.52,-4.52 v -18.35 q -0.09,-4.6 4.44,-4.61 l 114.62,0.09 q 4.6,-0.09 4.69,4.52 v 18.35 a 2.08,2.08 0 0 1 0,0.61 v 1.31 39.7 c 0,0.44 0,0.87 0,1.31 a 1,1 0 0 0 0,0.65 m 16.31,89.18 q 4.17,0 4.22,-4.22 L 322,122.38 c 0,-2.5 -1.14,-3.87 -3.43,-4.13 a 4,4 0 0 1 -0.79,-0.09 l -200.1,-0.09 c -2.87,0.09 -4.31,1.52 -4.31,4.31 v 201.06 q 0.48,3.35 4.31,3.26 l 200.15,0.13"
         style="fill:#017460;fill-opacity:1" /><path
         class="cls-1"
         d="m 433.86,192.15 a 69.24,69.24 0 0 1 5.53,-27.46 73.92,73.92 0 0 1 15.35,-23 72.57,72.57 0 0 1 22.79,-15.69 70.12,70.12 0 0 1 55.47,0 74.87,74.87 0 0 1 23,15.73 73.57,73.57 0 0 1 15.64,23 68.45,68.45 0 0 1 5.62,27.46 69.31,69.31 0 0 1 -5.64,27.81 71.34,71.34 0 0 1 -15.62,22.77 74.09,74.09 0 0 1 -23,15.35 72.46,72.46 0 0 1 -55.48,0 71.76,71.76 0 0 1 -38.13,-38.12 70.11,70.11 0 0 1 -5.53,-27.85 z m 28.6,0 a 45,45 0 0 0 12.68,31.74 42.5,42.5 0 0 0 31.18,13.11 40.35,40.35 0 0 0 30.12,-13.06 46.3,46.3 0 0 0 12.2,-31.74 46.32,46.32 0 0 0 -12.49,-32.2 41.22,41.22 0 0 0 -13.63,-9.63 43.69,43.69 0 0 0 -33.94,0 42.21,42.21 0 0 0 -13.72,9.63 44,44 0 0 0 -9.16,14.39 47.85,47.85 0 0 0 -3.24,17.76 z"
         id="path8763"
         style="fill:#017460;fill-opacity:1" /><path
         class="cls-1"
         d="m 642.64,121.79 q 17.34,0 29.36,5.82 A 41.87,41.87 0 0 1 690.3,144 q 6.3,10.59 6.29,25.08 a 60.22,60.22 0 0 1 -2.59,17.25 46,46 0 0 1 -8.2,15.73 39.82,39.82 0 0 1 -15.06,11.34 q -9.43,4.31 -23.17,4.3 h -19.81 v 44.42 H 600.12 V 121.79 Z m 4.76,69 a 22.52,22.52 0 0 0 10.49,-2.19 18.42,18.42 0 0 0 6.58,-5.53 22.79,22.79 0 0 0 3.43,-7 23,23 0 0 0 1.05,-6.29 31.63,31.63 0 0 0 -0.67,-5.63 23.11,23.11 0 0 0 -2.76,-7.15 17,17 0 0 0 -6.39,-6.1 q -4.29,-2.47 -11.54,-2.48 h -19.83 v 42.33 z"
         id="path8765"
         style="fill:#017460;fill-opacity:1" /><path
         class="cls-1"
         d="m 716.61,121.79 h 95.71 v 26.69 h -68.06 v 29.94 h 60.25 v 26.69 h -60.25 v 30.32 H 815 v 26.69 h -98.39 z"
         id="path8767"
         style="fill:#017460;fill-opacity:1" /><path
         class="cls-1"
         d="m 964.47,267.84 -106.39,-96.09 8.2,4.57 0.57,85.8 h -28 V 116.26 H 840 l 104.07,95.74 -6.1,-2.67 -0.57,-87.52 h 27.83 v 146 z"
         id="path8769"
         style="fill:#017460;fill-opacity:1" /><path
         class="cls-1"
         d="m 1054.27,124.27 q 15.06,0 25.74,5 a 37.72,37.72 0 0 1 16.49,14.59 q 5.82,9.54 5.82,23.07 a 53.62,53.62 0 0 1 -2.48,16.11 40.56,40.56 0 0 1 -7.91,14.3 39.35,39.35 0 0 1 -14.21,10.3 q -8.78,3.9 -21.35,3.9 H 1036 v 50.53 h -18.5 v -137.8 z m 1.91,69.21 c 5.46,0 10,-0.86 13.53,-2.57 a 21.82,21.82 0 0 0 8.39,-6.77 28.88,28.88 0 0 0 4.39,-8.58 28.22,28.22 0 0 0 1.33,-8.2 30.28,30.28 0 0 0 -1.33,-8.67 22.52,22.52 0 0 0 -4.48,-8.2 23.9,23.9 0 0 0 -8.2,-6.1 29.16,29.16 0 0 0 -12.49,-2.39 H 1036 v 51.48 z"
         id="path8771"
         style="fill:#017460;fill-opacity:1" /><path
         class="cls-1"
         d="m 1100.79,262.12 60.06,-143.57 h 1.15 l 60.24,143.57 h -21.16 l -45,-114.59 13.16,-8.58 -50.14,123.17 z m 35.28,-52.24 h 51.28 l 6.1,16 h -62.72 z"
         id="path8773"
         style="fill:#017460;fill-opacity:1" /><path
         class="cls-1"
         d="m 1223.39,124.27 h 91.71 V 142 h -37 v 120.12 h -18.5 V 142 h -36.22 z"
         id="path8775"
         style="fill:#017460;fill-opacity:1" /><path
         class="cls-1"
         d="m 1433.5,251.82 a 81.61,81.61 0 0 1 -9.34,5.15 68.68,68.68 0 0 1 -13.83,4.77 77.11,77.11 0 0 1 -46.14,-3.81 65,65 0 0 1 -35.75,-37.09 73.87,73.87 0 0 1 -4.76,-26.6 79.81,79.81 0 0 1 5,-28.5 66.32,66.32 0 0 1 14.21,-22.69 65.49,65.49 0 0 1 21.73,-15 69.07,69.07 0 0 1 27.36,-5.33 71.6,71.6 0 0 1 22.5,3.33 85.42,85.42 0 0 1 17.35,7.72 l -7.43,17.54 a 75.47,75.47 0 0 0 -13.92,-7.43 48,48 0 0 0 -37,0.57 49.37,49.37 0 0 0 -15.83,11.25 53.74,53.74 0 0 0 -14.68,37.56 59.74,59.74 0 0 0 3.53,20.69 49.7,49.7 0 0 0 10.11,16.78 45.92,45.92 0 0 0 15.92,11.15 52.7,52.7 0 0 0 21,4 50.49,50.49 0 0 0 18.68,-3.24 58.16,58.16 0 0 0 13.54,-7.24 z"
         id="path8777"
         style="fill:#017460;fill-opacity:1" /><path
         class="cls-1"
         d="m 1568.87,124.27 v 137.85 h -18.5 v -60.44 h -72.07 v 60.44 h -18.49 V 124.27 h 18.49 V 184 h 72.07 v -59.73 z"
         id="path8779"
         style="fill:#017460;fill-opacity:1" /><path
         class="cls-1"
         d="m 451.7,317 h -13 l -2.8,6.23 h -2.57 L 444,299.87 h 2.44 l 10.67,23.33 h -2.61 z m -0.9,-2 -5.6,-12.54 -5.6,12.54 z"
         id="path8781"
         style="fill:#017460;fill-opacity:1" /><path
         class="cls-1"
         d="m 466.38,320.37 1,-1.9 a 11.45,11.45 0 0 0 7.7,2.83 c 4.37,0 6.27,-1.83 6.27,-4.13 0,-6.4 -14.37,-2.47 -14.37,-11.1 0,-3.44 2.67,-6.4 8.6,-6.4 a 13.15,13.15 0 0 1 7.23,2.06 l -0.83,2 a 12,12 0 0 0 -6.4,-1.93 c -4.27,0 -6.17,1.9 -6.17,4.23 0,6.4 14.37,2.53 14.37,11 0,3.43 -2.73,6.36 -8.7,6.36 -3.53,0.01 -6.97,-1.22 -8.7,-3.02 z"
         id="path8783"
         style="fill:#017460;fill-opacity:1" /><path
         class="cls-1"
         d="m 494.53,320.37 1,-1.9 a 11.49,11.49 0 0 0 7.7,2.83 c 4.37,0 6.27,-1.83 6.27,-4.13 0,-6.4 -14.37,-2.47 -14.37,-11.1 0,-3.44 2.67,-6.4 8.61,-6.4 a 13.17,13.17 0 0 1 7.23,2.06 l -0.83,2 a 12,12 0 0 0 -6.4,-1.93 c -4.27,0 -6.17,1.9 -6.17,4.23 0,6.4 14.37,2.53 14.37,11 0,3.43 -2.74,6.36 -8.71,6.36 -3.54,0.01 -6.97,-1.22 -8.7,-3.02 z"
         id="path8785"
         style="fill:#017460;fill-opacity:1" /><path
         class="cls-1"
         d="m 541.41,321.07 v 2.13 h -16.5 v -23.33 h 16 V 302 h -13.54 v 8.3 h 12.07 v 2.1 h -12.07 v 8.67 z"
         id="path8787"
         style="fill:#017460;fill-opacity:1" /><path
         class="cls-1"
         d="m 552.62,320.37 1,-1.9 a 11.5,11.5 0 0 0 7.71,2.83 c 4.36,0 6.26,-1.83 6.26,-4.13 0,-6.4 -14.37,-2.47 -14.37,-11.1 0,-3.44 2.67,-6.4 8.61,-6.4 a 13.17,13.17 0 0 1 7.23,2.06 l -0.83,2 a 12,12 0 0 0 -6.4,-1.93 c -4.27,0 -6.17,1.9 -6.17,4.23 0,6.4 14.37,2.53 14.37,11 0,3.43 -2.74,6.36 -8.7,6.36 -3.54,0.01 -6.98,-1.22 -8.71,-3.02 z"
         id="path8789"
         style="fill:#017460;fill-opacity:1" /><path
         class="cls-1"
         d="m 580.76,320.37 1,-1.9 a 11.47,11.47 0 0 0 7.7,2.83 c 4.37,0 6.27,-1.83 6.27,-4.13 0,-6.4 -14.37,-2.47 -14.37,-11.1 0,-3.44 2.67,-6.4 8.6,-6.4 a 13.18,13.18 0 0 1 7.24,2.06 l -0.84,2 a 12,12 0 0 0 -6.4,-1.93 c -4.27,0 -6.17,1.9 -6.17,4.23 0,6.4 14.37,2.53 14.37,11 0,3.43 -2.73,6.36 -8.7,6.36 -3.53,0.01 -6.96,-1.22 -8.7,-3.02 z"
         id="path8791"
         style="fill:#017460;fill-opacity:1" /><path
         class="cls-1"
         d="M 635.38,299.87 V 323.2 H 633 v -18.67 l -9.17,15.71 h -1.16 l -9.17,-15.61 v 18.57 h -2.37 v -23.33 h 2 l 10.13,17.3 10,-17.3 z"
         id="path8793"
         style="fill:#017460;fill-opacity:1" /><path
         class="cls-1"
         d="m 667.13,321.07 v 2.13 h -16.51 v -23.33 h 16 V 302 h -13.53 v 8.3 h 12.07 v 2.1 h -12.07 v 8.67 z"
         id="path8795"
         style="fill:#017460;fill-opacity:1" /><path
         class="cls-1"
         d="m 700.08,299.87 v 23.33 h -2 l -15,-18.93 v 18.93 h -2.47 v -23.33 h 2 l 15,18.93 v -18.93 z"
         id="path8797"
         style="fill:#017460;fill-opacity:1" /><path
         class="cls-1"
         d="m 719.85,302 h -8.2 v -2.13 h 18.87 V 302 h -8.2 v 21.2 h -2.47 z"
         id="path8799"
         style="fill:#017460;fill-opacity:1" /><path
         class="cls-1"
         d="m 756.4,311.54 c 0,-6.81 5.2,-11.87 12.27,-11.87 7.07,0 12.24,5 12.24,11.87 0,6.87 -5.24,11.86 -12.24,11.86 -7,0 -12.27,-5.06 -12.27,-11.86 z m 22,0 a 9.8,9.8 0 1 0 -9.77,9.66 9.46,9.46 0 0 0 9.81,-9.66 z"
         id="path8801"
         style="fill:#017460;fill-opacity:1" /><path
         class="cls-1"
         d="m 796.55,302 v 9.17 h 12.07 v 2.13 h -12.07 v 9.9 h -2.46 v -23.33 h 16 V 302 Z"
         id="path8803"
         style="fill:#017460;fill-opacity:1" /><path
         class="cls-1"
         d="m 857.48,307.87 c 0,5 -3.61,8 -9.54,8 h -6.27 v 7.36 h -2.46 v -23.36 h 8.73 c 5.93,0 9.54,3 9.54,8 z m -2.47,0 c 0,-3.74 -2.47,-5.87 -7.14,-5.87 h -6.2 v 11.67 h 6.2 c 4.67,0 7.13,-2.13 7.13,-5.8 z"
         id="path8805"
         style="fill:#017460;fill-opacity:1" /><path
         class="cls-1"
         d="m 886.39,323.2 -5.34,-7.5 a 15.82,15.82 0 0 1 -1.86,0.1 h -6.27 v 7.4 h -2.47 v -23.33 h 8.74 c 5.93,0 9.53,3 9.53,8 a 7.22,7.22 0 0 1 -5.33,7.33 l 5.7,8 z m -0.14,-15.33 c 0,-3.74 -2.46,-5.87 -7.13,-5.87 h -6.2 v 11.7 h 6.2 c 4.67,0 7.13,-2.16 7.13,-5.83 z"
         id="path8807"
         style="fill:#017460;fill-opacity:1" /><path
         class="cls-1"
         d="m 900.13,311.54 c 0,-6.81 5.2,-11.87 12.27,-11.87 7.07,0 12.24,5 12.24,11.87 0,6.87 -5.24,11.86 -12.24,11.86 -7,0 -12.27,-5.06 -12.27,-11.86 z m 22,0 a 9.8,9.8 0 1 0 -9.77,9.66 9.46,9.46 0 0 0 9.81,-9.66 z"
         id="path8809"
         style="fill:#017460;fill-opacity:1" /><path
         class="cls-1"
         d="m 954.25,311.54 h 2.37 v 8.9 a 12.92,12.92 0 0 1 -8.57,3 c -7.1,0 -12.3,-5 -12.3,-11.86 0,-6.86 5.2,-11.87 12.33,-11.87 a 11.51,11.51 0 0 1 8.67,3.36 l -1.53,1.57 a 9.54,9.54 0 0 0 -7,-2.73 c -5.77,0 -10,4.1 -10,9.67 0,5.57 4.23,9.66 10,9.66 a 10.11,10.11 0 0 0 6.1,-1.8 z"
         id="path8811"
         style="fill:#017460;fill-opacity:1" /><path
         class="cls-1"
         d="m 987.16,323.2 -5.33,-7.5 a 15.88,15.88 0 0 1 -1.87,0.1 h -6.27 v 7.4 h -2.46 V 299.87 H 980 c 5.94,0 9.54,3 9.54,8 a 7.23,7.23 0 0 1 -5.34,7.33 l 5.71,8 z M 987,307.87 c 0,-3.74 -2.47,-5.87 -7.13,-5.87 h -6.21 v 11.7 h 6.21 c 4.69,0 7.13,-2.16 7.13,-5.83 z"
         id="path8813"
         style="fill:#017460;fill-opacity:1" /><path
         class="cls-1"
         d="m 1017.61,317 h -13 l -2.8,6.23 h -2.57 l 10.67,-23.33 h 2.43 l 10.66,23.3 h -2.6 z m -0.9,-2 -5.6,-12.54 -5.6,12.54 z"
         id="path8815"
         style="fill:#017460;fill-opacity:1" /><path
         class="cls-1"
         d="m 1058.76,299.87 v 23.33 h -2.37 v -18.67 l -9.17,15.71 h -1.16 l -9.17,-15.61 v 18.57 h -2.37 v -23.33 h 2 l 10.13,17.3 10,-17.3 z"
         id="path8817"
         style="fill:#017460;fill-opacity:1" /><path
         class="cls-1"
         d="m 1098.24,299.87 v 23.33 h -2.36 v -18.67 l -9.17,15.71 h -1.17 l -9.17,-15.61 V 323.2 H 1074 v -23.33 h 2 l 10.13,17.3 10,-17.3 z"
         id="path8819"
         style="fill:#017460;fill-opacity:1" /><path
         class="cls-1"
         d="m 1113.49,299.87 h 2.51 v 23.33 h -2.47 z"
         id="path8821"
         style="fill:#017460;fill-opacity:1" /><path
         class="cls-1"
         d="m 1150.7,299.87 v 23.33 h -2 l -15,-18.93 v 18.93 h -2.46 v -23.33 h 2 l 15,18.93 v -18.93 z"
         id="path8823"
         style="fill:#017460;fill-opacity:1" /><path
         class="cls-1"
         d="m 1182.38,311.54 h 2.37 v 8.9 a 12.92,12.92 0 0 1 -8.57,3 c -7.1,0 -12.3,-5 -12.3,-11.86 0,-6.86 5.2,-11.87 12.33,-11.87 a 11.51,11.51 0 0 1 8.67,3.36 l -1.53,1.57 a 9.54,9.54 0 0 0 -7,-2.73 c -5.77,0 -10,4.1 -10,9.67 0,5.57 4.23,9.66 10,9.66 a 10.11,10.11 0 0 0 6.1,-1.8 z"
         id="path8825"
         style="fill:#017460;fill-opacity:1" /><path
         class="cls-1"
         d="m 1213.66,311.54 c 0,-6.84 5.21,-11.87 12.24,-11.87 a 11.31,11.31 0 0 1 8.54,3.4 l -1.57,1.56 a 9.26,9.26 0 0 0 -6.9,-2.76 9.67,9.67 0 1 0 0,19.33 9.15,9.15 0 0 0 6.9,-2.8 l 1.57,1.57 a 11.35,11.35 0 0 1 -8.57,3.43 c -7,0 -12.21,-5.03 -12.21,-11.86 z"
         id="path8827"
         style="fill:#017460;fill-opacity:1" /><path
         class="cls-1"
         d="m 1244.78,311.54 c 0,-6.81 5.2,-11.87 12.27,-11.87 7.07,0 12.23,5 12.23,11.87 0,6.87 -5.23,11.86 -12.23,11.86 -7,0 -12.27,-5.06 -12.27,-11.86 z m 22,0 a 9.81,9.81 0 1 0 -9.77,9.66 9.46,9.46 0 0 0 9.81,-9.66 z"
         id="path8829"
         style="fill:#017460;fill-opacity:1" /><path
         class="cls-1"
         d="m 1306.7,299.87 v 23.33 h -2.37 v -18.67 l -9.17,15.71 H 1294 l -9.17,-15.61 v 18.57 h -2.37 v -23.33 h 2 l 10.14,17.3 10,-17.3 z"
         id="path8831"
         style="fill:#017460;fill-opacity:1" /><path
         class="cls-1"
         d="m 1340.21,307.87 c 0,5 -3.6,8 -9.53,8 h -6.27 v 7.36 h -2.47 v -23.36 h 8.74 c 5.93,0 9.53,3 9.53,8 z m -2.46,0 c 0,-3.74 -2.47,-5.87 -7.14,-5.87 h -6.2 v 11.67 h 6.2 c 4.67,0 7.14,-2.13 7.14,-5.8 z"
         id="path8833"
         style="fill:#017460;fill-opacity:1" /><path
         class="cls-1"
         d="m 1369.69,321.07 v 2.13 h -16.5 v -23.33 h 16 V 302 h -13.53 v 8.3 h 12.07 v 2.1 h -12.07 v 8.67 z"
         id="path8835"
         style="fill:#017460;fill-opacity:1" /><path
         class="cls-1"
         d="m 1387.67,302 h -8.2 v -2.13 h 18.87 V 302 h -8.2 v 21.2 h -2.47 z"
         id="path8837"
         style="fill:#017460;fill-opacity:1" /><path
         class="cls-1"
         d="m 1426.42,321.07 v 2.13 h -16.51 v -23.33 h 16 V 302 h -13.54 v 8.3 h 12.07 v 2.1 h -12.07 v 8.67 z"
         id="path8839"
         style="fill:#017460;fill-opacity:1" /><path
         class="cls-1"
         d="m 1459.36,299.87 v 23.33 h -2 l -15,-18.93 v 18.93 h -2.47 v -23.33 h 2 l 15,18.93 v -18.93 z"
         id="path8841"
         style="fill:#017460;fill-opacity:1" /><path
         class="cls-1"
         d="m 1472.54,311.54 c 0,-6.84 5.2,-11.87 12.24,-11.87 a 11.27,11.27 0 0 1 8.53,3.4 l -1.56,1.56 a 9.29,9.29 0 0 0 -6.91,-2.76 9.67,9.67 0 1 0 0,19.33 9.17,9.17 0 0 0 6.91,-2.8 l 1.56,1.57 a 11.32,11.32 0 0 1 -8.57,3.43 c -7,0 -12.2,-5.03 -12.2,-11.86 z"
         id="path8843"
         style="fill:#017460;fill-opacity:1" /><path
         class="cls-1"
         d="m 1506.22,299.87 h 2.47 v 23.33 h -2.47 z"
         id="path8845"
         style="fill:#017460;fill-opacity:1" /><path
         class="cls-1"
         d="m 1540.43,321.07 v 2.13 h -16.5 v -23.33 h 16 V 302 h -13.53 v 8.3 h 12.06 v 2.1 h -12.06 v 8.67 z"
         id="path8847"
         style="fill:#017460;fill-opacity:1" /><path
         class="cls-1"
         d="m 1551.64,320.37 1,-1.9 a 11.47,11.47 0 0 0 7.7,2.83 c 4.37,0 6.27,-1.83 6.27,-4.13 0,-6.4 -14.37,-2.47 -14.37,-11.1 0,-3.44 2.66,-6.4 8.6,-6.4 a 13.15,13.15 0 0 1 7.23,2.06 l -0.83,2 a 12,12 0 0 0 -6.4,-1.93 c -4.27,0 -6.17,1.9 -6.17,4.23 0,6.4 14.37,2.53 14.37,11 0,3.43 -2.73,6.36 -8.7,6.36 -3.53,0.01 -6.97,-1.22 -8.7,-3.02 z"
         id="path8849"
         style="fill:#017460;fill-opacity:1" /></g></g></svg>
