<svg id="Layer_1" data-name="Layer 1" xmlns="http://www.w3.org/2000/svg" viewBox="0 0 1643 445"><defs><style>.cls-1{fill:#cefbf2;}</style></defs><title>Version 2</title><path class="cls-1" d="M350.21,366.21h-265A11.2,11.2,0,0,1,74,355V90A11.2,11.2,0,0,1,85.18,78.79h265A11.2,11.2,0,0,1,361.4,90V355A11.2,11.2,0,0,1,350.21,366.21ZM86.33,353.86H349.06V91.14H86.33Z"/><path id="path22-7-0" class="cls-1" d="M171.28,265.52a4.47,4.47,0,0,1,1.31,3.57v33.65c0,3-1.53,4.54-4.57,4.57l-28.65-.05c-3,0-4.53-1.5-4.53-4.52V284.48a1.55,1.55,0,0,1,.18-.7l-.05-.13-.13,0V269.09q0-4.57,4.53-4.53l28.65,0a5.07,5.07,0,0,1,3.26,1m130.19-103c.06,3.08-1.45,4.64-4.52,4.7l-28.62-.09c-3.13,0-4.72-1.53-4.78-4.61l0-18.3q.09-4.6,4.78-4.61l28.79.09q4.43.08,4.34,4.52l.05,18.3m-80.88,0,0-18.3q.09-4.6,4.79-4.61l28.48,0q4.69,0,4.65,4.65l0,18.3c.06,3.08-1.48,4.61-4.61,4.61H225.37c-3.13,0-4.72-1.53-4.78-4.61m-5.13,0c0,3.11-1.48,4.64-4.52,4.61H182.33c-3.05,0-4.58-1.5-4.61-4.61l-.05-18.3q.09-4.6,4.61-4.61H211c3,0,4.49,1.54,4.44,4.61l0,18.3m-76.09-23,28.65,0q4.56,0,4.44,4.61l0,18.3c.06,3.08-1.42,4.61-4.44,4.61H139.37c-3,0-4.55-1.53-4.61-4.61l0-18.3q.09-4.6,4.66-4.65m162.14,98.05,0,18.3q0,4.53-4.6,4.61l-157.58-.08q-4.53,0-4.53-4.53V237.61a1.67,1.67,0,0,1,.18-.79c-.12-.64-.2-1.24-.26-1.82l.08-38.36A11.12,11.12,0,0,1,135,195a4.15,4.15,0,0,1-.13-1V175.77c-.05-3.07,1.42-4.61,4.44-4.61H168q4.52,0,4.61,4.61V194c0,.34,0,.68-.05,1,0,.55.05,1.08.05,1.6L172.5,233h91.05l0-34.4H182.28q-4.51,0-4.52-4.52V175.73q-.09-4.6,4.44-4.61l114.62.09q4.6-.09,4.69,4.52v18.35a2.08,2.08,0,0,1,0,.61V196l0,39.7c0,.44,0,.87,0,1.31a1,1,0,0,0,0,.65m16.31,89.18q4.17,0,4.22-4.22L322,122.38c0-2.5-1.14-3.87-3.43-4.13a4,4,0,0,1-.79-.09l-200.1-.09c-2.87.09-4.31,1.52-4.31,4.31V323.44q.48,3.35,4.31,3.26l200.15.13"/><path class="cls-1" d="M433.86,192.15a69.24,69.24,0,0,1,5.53-27.46,73.92,73.92,0,0,1,15.35-23A72.57,72.57,0,0,1,477.53,126,70.12,70.12,0,0,1,533,126a74.87,74.87,0,0,1,23,15.73,73.57,73.57,0,0,1,15.64,23,68.45,68.45,0,0,1,5.62,27.46A69.31,69.31,0,0,1,571.62,220,71.34,71.34,0,0,1,556,242.77a74.09,74.09,0,0,1-23,15.35,72.46,72.46,0,0,1-55.48,0A71.76,71.76,0,0,1,439.39,220,70.11,70.11,0,0,1,433.86,192.15Zm28.6,0a45,45,0,0,0,12.68,31.74A42.5,42.5,0,0,0,506.32,237a40.35,40.35,0,0,0,30.12-13.06,46.3,46.3,0,0,0,12.2-31.74A46.32,46.32,0,0,0,536.15,160a41.22,41.22,0,0,0-13.63-9.63,43.69,43.69,0,0,0-33.94,0A42.21,42.21,0,0,0,474.86,160a44,44,0,0,0-9.16,14.39A47.85,47.85,0,0,0,462.46,192.15Z"/><path class="cls-1" d="M642.64,121.79q17.34,0,29.36,5.82A41.87,41.87,0,0,1,690.3,144q6.3,10.59,6.29,25.08A60.22,60.22,0,0,1,694,186.33a46,46,0,0,1-8.2,15.73,39.82,39.82,0,0,1-15.06,11.34q-9.43,4.31-23.17,4.3H627.76v44.42H600.12V121.79Zm4.76,69a22.52,22.52,0,0,0,10.49-2.19,18.42,18.42,0,0,0,6.58-5.53,22.79,22.79,0,0,0,3.43-7,23,23,0,0,0,1.05-6.29,31.63,31.63,0,0,0-.67-5.63,23.11,23.11,0,0,0-2.76-7.15,17,17,0,0,0-6.39-6.1q-4.29-2.47-11.54-2.48H627.76v42.33Z"/><path class="cls-1" d="M716.61,121.79h95.71v26.69H744.26v29.94h60.25v26.69H744.26v30.32H815v26.69H716.61Z"/><path class="cls-1" d="M964.47,267.84,858.08,171.75l8.2,4.57.57,85.8h-28V116.26H840L944.07,212l-6.1-2.67-.57-87.52h27.83v146Z"/><path class="cls-1" d="M1054.27,124.27q15.06,0,25.74,5a37.72,37.72,0,0,1,16.49,14.59q5.82,9.54,5.82,23.07a53.62,53.62,0,0,1-2.48,16.11,40.56,40.56,0,0,1-7.91,14.3,39.35,39.35,0,0,1-14.21,10.3q-8.78,3.9-21.35,3.9H1036v50.53h-18.5V124.27Zm1.91,69.21c5.46,0,10-.86,13.53-2.57a21.82,21.82,0,0,0,8.39-6.77,28.88,28.88,0,0,0,4.39-8.58,28.22,28.22,0,0,0,1.33-8.2,30.28,30.28,0,0,0-1.33-8.67,22.52,22.52,0,0,0-4.48-8.2,23.9,23.9,0,0,0-8.2-6.1,29.16,29.16,0,0,0-12.49-2.39H1036v51.48Z"/><path class="cls-1" d="M1100.79,262.12l60.06-143.57H1162l60.24,143.57h-21.16l-45-114.59,13.16-8.58L1119.1,262.12Zm35.28-52.24h51.28l6.1,16h-62.72Z"/><path class="cls-1" d="M1223.39,124.27h91.71V142h-37V262.12h-18.5V142h-36.22Z"/><path class="cls-1" d="M1433.5,251.82a81.61,81.61,0,0,1-9.34,5.15,68.68,68.68,0,0,1-13.83,4.77,77.11,77.11,0,0,1-46.14-3.81,65,65,0,0,1-35.75-37.09,73.87,73.87,0,0,1-4.76-26.6,79.81,79.81,0,0,1,5-28.5,66.32,66.32,0,0,1,14.21-22.69,65.49,65.49,0,0,1,21.73-15,69.07,69.07,0,0,1,27.36-5.33,71.6,71.6,0,0,1,22.5,3.33,85.42,85.42,0,0,1,17.35,7.72l-7.43,17.54a75.47,75.47,0,0,0-13.92-7.43,48,48,0,0,0-37,.57,49.37,49.37,0,0,0-15.83,11.25,53.74,53.74,0,0,0-14.68,37.56,59.74,59.74,0,0,0,3.53,20.69,49.7,49.7,0,0,0,10.11,16.78,45.92,45.92,0,0,0,15.92,11.15,52.7,52.7,0,0,0,21,4,50.49,50.49,0,0,0,18.68-3.24,58.16,58.16,0,0,0,13.54-7.24Z"/><path class="cls-1" d="M1568.87,124.27V262.12h-18.5V201.68H1478.3v60.44h-18.49V124.27h18.49V184h72.07V124.27Z"/><path class="cls-1" d="M451.7,317h-13l-2.8,6.23h-2.57L444,299.87h2.44l10.67,23.33H454.5Zm-.9-2-5.6-12.54L439.6,315Z"/><path class="cls-1" d="M466.38,320.37l1-1.9a11.45,11.45,0,0,0,7.7,2.83c4.37,0,6.27-1.83,6.27-4.13,0-6.4-14.37-2.47-14.37-11.1,0-3.44,2.67-6.4,8.6-6.4a13.15,13.15,0,0,1,7.23,2.06l-.83,2a12,12,0,0,0-6.4-1.93c-4.27,0-6.17,1.9-6.17,4.23,0,6.4,14.37,2.53,14.37,11,0,3.43-2.73,6.36-8.7,6.36C471.55,323.4,468.11,322.17,466.38,320.37Z"/><path class="cls-1" d="M494.53,320.37l1-1.9a11.49,11.49,0,0,0,7.7,2.83c4.37,0,6.27-1.83,6.27-4.13,0-6.4-14.37-2.47-14.37-11.1,0-3.44,2.67-6.4,8.61-6.4a13.17,13.17,0,0,1,7.23,2.06l-.83,2a12,12,0,0,0-6.4-1.93c-4.27,0-6.17,1.9-6.17,4.23,0,6.4,14.37,2.53,14.37,11,0,3.43-2.74,6.36-8.71,6.36C499.69,323.4,496.26,322.17,494.53,320.37Z"/><path class="cls-1" d="M541.41,321.07v2.13h-16.5V299.87h16V302H527.37v8.3h12.07v2.1H527.37v8.67Z"/><path class="cls-1" d="M552.62,320.37l1-1.9a11.5,11.5,0,0,0,7.71,2.83c4.36,0,6.26-1.83,6.26-4.13,0-6.4-14.37-2.47-14.37-11.1,0-3.44,2.67-6.4,8.61-6.4a13.17,13.17,0,0,1,7.23,2.06l-.83,2a12,12,0,0,0-6.4-1.93c-4.27,0-6.17,1.9-6.17,4.23,0,6.4,14.37,2.53,14.37,11,0,3.43-2.74,6.36-8.7,6.36C557.79,323.4,554.35,322.17,552.62,320.37Z"/><path class="cls-1" d="M580.76,320.37l1-1.9a11.47,11.47,0,0,0,7.7,2.83c4.37,0,6.27-1.83,6.27-4.13,0-6.4-14.37-2.47-14.37-11.1,0-3.44,2.67-6.4,8.6-6.4a13.18,13.18,0,0,1,7.24,2.06l-.84,2a12,12,0,0,0-6.4-1.93c-4.27,0-6.17,1.9-6.17,4.23,0,6.4,14.37,2.53,14.37,11,0,3.43-2.73,6.36-8.7,6.36C585.93,323.4,582.5,322.17,580.76,320.37Z"/><path class="cls-1" d="M635.38,299.87V323.2H633V304.53l-9.17,15.71h-1.16l-9.17-15.61V323.2h-2.37V299.87h2l10.13,17.3,10-17.3Z"/><path class="cls-1" d="M667.13,321.07v2.13H650.62V299.87h16V302H653.09v8.3h12.07v2.1H653.09v8.67Z"/><path class="cls-1" d="M700.08,299.87V323.2h-2l-15-18.93V323.2h-2.47V299.87h2l15,18.93V299.87Z"/><path class="cls-1" d="M719.85,302h-8.2v-2.13h18.87V302h-8.2v21.2h-2.47Z"/><path class="cls-1" d="M756.4,311.54c0-6.81,5.2-11.87,12.27-11.87s12.24,5,12.24,11.87-5.24,11.86-12.24,11.86S756.4,318.34,756.4,311.54Zm22,0a9.8,9.8,0,1,0-9.77,9.66A9.46,9.46,0,0,0,778.44,311.54Z"/><path class="cls-1" d="M796.55,302v9.17h12.07v2.13H796.55v9.9h-2.46V299.87h16V302Z"/><path class="cls-1" d="M857.48,307.87c0,5-3.61,8-9.54,8h-6.27v7.36h-2.46V299.87h8.73C853.87,299.87,857.48,302.87,857.48,307.87Zm-2.47,0c0-3.74-2.47-5.87-7.14-5.87h-6.2v11.67h6.2C852.54,313.67,855,311.54,855,307.87Z"/><path class="cls-1" d="M886.39,323.2l-5.34-7.5a15.82,15.82,0,0,1-1.86.1h-6.27v7.4h-2.47V299.87h8.74c5.93,0,9.53,3,9.53,8a7.22,7.22,0,0,1-5.33,7.33l5.7,8Zm-.14-15.33c0-3.74-2.46-5.87-7.13-5.87h-6.2v11.7h6.2C883.79,313.7,886.25,311.54,886.25,307.87Z"/><path class="cls-1" d="M900.13,311.54c0-6.81,5.2-11.87,12.27-11.87s12.24,5,12.24,11.87S919.4,323.4,912.4,323.4,900.13,318.34,900.13,311.54Zm22,0a9.8,9.8,0,1,0-9.77,9.66A9.46,9.46,0,0,0,922.17,311.54Z"/><path class="cls-1" d="M954.25,311.54h2.37v8.9a12.92,12.92,0,0,1-8.57,3c-7.1,0-12.3-5-12.3-11.86s5.2-11.87,12.33-11.87a11.51,11.51,0,0,1,8.67,3.36l-1.53,1.57a9.54,9.54,0,0,0-7-2.73c-5.77,0-10,4.1-10,9.67s4.23,9.66,10,9.66a10.11,10.11,0,0,0,6.1-1.8Z"/><path class="cls-1" d="M987.16,323.2l-5.33-7.5a15.88,15.88,0,0,1-1.87.1h-6.27v7.4h-2.46V299.87H980c5.94,0,9.54,3,9.54,8a7.23,7.23,0,0,1-5.34,7.33l5.71,8ZM987,307.87c0-3.74-2.47-5.87-7.13-5.87h-6.21v11.7h6.21C984.56,313.7,987,311.54,987,307.87Z"/><path class="cls-1" d="M1017.61,317h-13l-2.8,6.23h-2.57l10.67-23.33h2.43L1023,323.2h-2.6Zm-.9-2-5.6-12.54-5.6,12.54Z"/><path class="cls-1" d="M1058.76,299.87V323.2h-2.37V304.53l-9.17,15.71h-1.16l-9.17-15.61V323.2h-2.37V299.87h2l10.13,17.3,10-17.3Z"/><path class="cls-1" d="M1098.24,299.87V323.2h-2.36V304.53l-9.17,15.71h-1.17l-9.17-15.61V323.2H1074V299.87h2l10.13,17.3,10-17.3Z"/><path class="cls-1" d="M1113.49,299.87H1116V323.2h-2.47Z"/><path class="cls-1" d="M1150.7,299.87V323.2h-2l-15-18.93V323.2h-2.46V299.87h2l15,18.93V299.87Z"/><path class="cls-1" d="M1182.38,311.54h2.37v8.9a12.92,12.92,0,0,1-8.57,3c-7.1,0-12.3-5-12.3-11.86s5.2-11.87,12.33-11.87a11.51,11.51,0,0,1,8.67,3.36l-1.53,1.57a9.54,9.54,0,0,0-7-2.73c-5.77,0-10,4.1-10,9.67s4.23,9.66,10,9.66a10.11,10.11,0,0,0,6.1-1.8Z"/><path class="cls-1" d="M1213.66,311.54c0-6.84,5.21-11.87,12.24-11.87a11.31,11.31,0,0,1,8.54,3.4l-1.57,1.56a9.26,9.26,0,0,0-6.9-2.76,9.67,9.67,0,1,0,0,19.33,9.15,9.15,0,0,0,6.9-2.8l1.57,1.57a11.35,11.35,0,0,1-8.57,3.43C1218.87,323.4,1213.66,318.37,1213.66,311.54Z"/><path class="cls-1" d="M1244.78,311.54c0-6.81,5.2-11.87,12.27-11.87s12.23,5,12.23,11.87-5.23,11.86-12.23,11.86S1244.78,318.34,1244.78,311.54Zm22,0a9.81,9.81,0,1,0-9.77,9.66A9.46,9.46,0,0,0,1266.82,311.54Z"/><path class="cls-1" d="M1306.7,299.87V323.2h-2.37V304.53l-9.17,15.71H1294l-9.17-15.61V323.2h-2.37V299.87h2l10.14,17.3,10-17.3Z"/><path class="cls-1" d="M1340.21,307.87c0,5-3.6,8-9.53,8h-6.27v7.36h-2.47V299.87h8.74C1336.61,299.87,1340.21,302.87,1340.21,307.87Zm-2.46,0c0-3.74-2.47-5.87-7.14-5.87h-6.2v11.67h6.2C1335.28,313.67,1337.75,311.54,1337.75,307.87Z"/><path class="cls-1" d="M1369.69,321.07v2.13h-16.5V299.87h16V302h-13.53v8.3h12.07v2.1h-12.07v8.67Z"/><path class="cls-1" d="M1387.67,302h-8.2v-2.13h18.87V302h-8.2v21.2h-2.47Z"/><path class="cls-1" d="M1426.42,321.07v2.13h-16.51V299.87h16V302h-13.54v8.3h12.07v2.1h-12.07v8.67Z"/><path class="cls-1" d="M1459.36,299.87V323.2h-2l-15-18.93V323.2h-2.47V299.87h2l15,18.93V299.87Z"/><path class="cls-1" d="M1472.54,311.54c0-6.84,5.2-11.87,12.24-11.87a11.27,11.27,0,0,1,8.53,3.4l-1.56,1.56a9.29,9.29,0,0,0-6.91-2.76,9.67,9.67,0,1,0,0,19.33,9.17,9.17,0,0,0,6.91-2.8l1.56,1.57a11.32,11.32,0,0,1-8.57,3.43C1477.74,323.4,1472.54,318.37,1472.54,311.54Z"/><path class="cls-1" d="M1506.22,299.87h2.47V323.2h-2.47Z"/><path class="cls-1" d="M1540.43,321.07v2.13h-16.5V299.87h16V302H1526.4v8.3h12.06v2.1H1526.4v8.67Z"/><path class="cls-1" d="M1551.64,320.37l1-1.9a11.47,11.47,0,0,0,7.7,2.83c4.37,0,6.27-1.83,6.27-4.13,0-6.4-14.37-2.47-14.37-11.1,0-3.44,2.66-6.4,8.6-6.4a13.15,13.15,0,0,1,7.23,2.06l-.83,2a12,12,0,0,0-6.4-1.93c-4.27,0-6.17,1.9-6.17,4.23,0,6.4,14.37,2.53,14.37,11,0,3.43-2.73,6.36-8.7,6.36C1556.81,323.4,1553.37,322.17,1551.64,320.37Z"/></svg>