<?xml version="1.0" encoding="UTF-8" standalone="no"?>
<svg
   id="Layer_1"
   data-name="Layer 1"
   viewBox="0 0 352.70001 352.70001"
   version="1.1"
   sodipodi:docname="openpatch-plain-light.svg"
   width="352.70001"
   height="352.70001"
   inkscape:version="1.2.1 (9c6d41e410, 2022-07-14)"
   xmlns:inkscape="http://www.inkscape.org/namespaces/inkscape"
   xmlns:sodipodi="http://sodipodi.sourceforge.net/DTD/sodipodi-0.dtd"
   xmlns="http://www.w3.org/2000/svg"
   xmlns:svg="http://www.w3.org/2000/svg"
   xmlns:rdf="http://www.w3.org/1999/02/22-rdf-syntax-ns#"
   xmlns:cc="http://creativecommons.org/ns#"
   xmlns:dc="http://purl.org/dc/elements/1.1/">
  <sodipodi:namedview
     id="namedview12"
     pagecolor="#ffffff"
     bordercolor="#666666"
     borderopacity="1.0"
     inkscape:showpageshadow="2"
     inkscape:pageopacity="0.0"
     inkscape:pagecheckerboard="true"
     inkscape:deskcolor="#d1d1d1"
     showgrid="false"
     inkscape:zoom="1.7707865"
     inkscape:cx="176.75761"
     inkscape:cy="176.19289"
     inkscape:window-width="1920"
     inkscape:window-height="1011"
     inkscape:window-x="0"
     inkscape:window-y="0"
     inkscape:window-maximized="1"
     inkscape:current-layer="Layer_1" />
  <defs
     id="defs4">
    <style
       id="style2">.cls-1{fill:#b5e3d8;}</style>
  </defs>
  <title
     id="title6">Icon 2</title>
  <path
     class="cls-1"
     d="M 338.97,352.7 H 13.73 A 13.74,13.74 0 0 1 0,338.98 V 13.73 A 13.75,13.75 0 0 1 13.73,0 H 338.97 A 13.75,13.75 0 0 1 352.7,13.73 V 338.98 A 13.74,13.74 0 0 1 338.97,352.7 Z M 15.14,337.56 H 337.56 V 15.14 H 15.14 Z"
     id="path8" />
  <path
     id="path22-7-0"
     class="cls-1"
     d="m 119.39,229.14 a 5.5,5.5 0 0 1 1.6,4.38 v 41.33 c 0,3.7 -1.86,5.57 -5.6,5.6 L 80.23,280.4 q -5.55,0 -5.55,-5.55 v -22.44 a 1.9,1.9 0 0 1 0.21,-0.85 l -0.05,-0.16 -0.16,-0.06 v -17.82 q -0.06,-5.61 5.55,-5.55 l 35.16,-0.05 a 6.21,6.21 0 0 1 4,1.22 M 279.16,102.79 q 0.1,5.66 -5.55,5.76 l -35.11,-0.11 c -3.85,0 -5.8,-1.88 -5.87,-5.65 l -0.06,-22.47 q 0.11,-5.66 5.87,-5.66 l 35.33,0.11 c 3.63,0.07 5.4,1.92 5.33,5.55 l 0.06,22.47 m -99.26,0 0.06,-22.47 q 0.1,-5.66 5.87,-5.66 h 35 q 5.76,0 5.71,5.71 l -0.05,22.47 q 0.11,5.66 -5.66,5.65 h -35 c -3.84,0 -5.79,-1.88 -5.87,-5.65 m -6.29,0 c 0,3.8 -1.82,5.69 -5.55,5.65 h -35.17 c -3.74,0 -5.62,-1.85 -5.66,-5.65 l -0.05,-22.47 q 0.11,-5.66 5.65,-5.66 h 35.22 c 3.7,0 5.52,1.89 5.44,5.66 l 0.06,22.47 M 80.23,74.66 h 35.16 c 3.74,0 5.55,1.85 5.44,5.66 l 0.06,22.47 q 0.11,5.66 -5.45,5.65 H 80.23 q -5.55,0 -5.66,-5.65 V 80.32 q 0.1,-5.66 5.71,-5.71 m 199,120.33 0.05,22.47 c 0,3.69 -1.88,5.58 -5.65,5.65 L 80.3,222.95 q -5.55,0 -5.55,-5.54 v -22.56 a 2.12,2.12 0 0 1 0.21,-1 c -0.14,-0.79 -0.25,-1.53 -0.32,-2.24 l 0.11,-47.07 a 12.16,12.16 0 0 1 0.16,-2 4.51,4.51 0 0 1 -0.16,-1.23 v -22.3 q -0.1,-5.66 5.44,-5.66 h 35.22 q 5.55,0 5.65,5.66 v 22.41 a 12.27,12.27 0 0 1 0,1.23 c 0,0.67 0,1.33 0,2 l -0.1,44.61 h 111.67 l 0.05,-42.21 h -99.83 q -5.55,0 -5.55,-5.55 v -22.55 q -0.11,-5.65 5.45,-5.65 l 140.66,0.1 q 5.65,-0.11 5.76,5.55 v 22.52 a 3.14,3.14 0 0 1 0,0.75 v 1.63 l 0.05,48.72 a 14.23,14.23 0 0 0 0,1.6 1.19,1.19 0 0 0 -0.05,0.8 m 20,109.44 c 3.42,0 5.14,-1.72 5.18,-5.17 L 304.29,53.51 q 0,-4.59 -4.21,-5.07 a 4.29,4.29 0 0 1 -1,-0.11 L 53.51,48.23 q -5.28,0.15 -5.28,5.28 v 246.71 q 0.59,4.11 5.28,4 l 245.62,0.16" />
  <metadata
     id="metadata241">
    <rdf:RDF>
      <cc:Work
         rdf:about="">
        <dc:title>Icon 2</dc:title>
      </cc:Work>
    </rdf:RDF>
  </metadata>
</svg>
