<?xml version="1.0" encoding="UTF-8" standalone="no"?>
<svg
   id="Layer_1"
   data-name="Layer 1"
   viewBox="0 0 1643 445"
   version="1.1"
   sodipodi:docname="openpatch-text-light.svg"
   inkscape:version="1.3 (0e150ed6c4, 2023-07-21)"
   xmlns:inkscape="http://www.inkscape.org/namespaces/inkscape"
   xmlns:sodipodi="http://sodipodi.sourceforge.net/DTD/sodipodi-0.dtd"
   xmlns="http://www.w3.org/2000/svg"
   xmlns:svg="http://www.w3.org/2000/svg">
  <sodipodi:namedview
     id="namedview45"
     pagecolor="#ffffff"
     bordercolor="#666666"
     borderopacity="1.0"
     inkscape:showpageshadow="2"
     inkscape:pageopacity="0.0"
     inkscape:pagecheckerboard="0"
     inkscape:deskcolor="#d1d1d1"
     inkscape:zoom="0.42909312"
     inkscape:cx="821.5"
     inkscape:cy="222.56241"
     inkscape:window-width="960"
     inkscape:window-height="1011"
     inkscape:window-x="0"
     inkscape:window-y="32"
     inkscape:window-maximized="0"
     inkscape:current-layer="Layer_1" />
  <defs
     id="defs1">
    <style
       id="style1">.cls-1{fill:#b5e3d8;}</style>
  </defs>
  <title
     id="title1">Version 2</title>
  <path
     class="cls-1"
     d="M350.21,366.21h-265A11.2,11.2,0,0,1,74,355V90A11.2,11.2,0,0,1,85.18,78.79h265A11.2,11.2,0,0,1,361.4,90V355A11.2,11.2,0,0,1,350.21,366.21ZM86.33,353.86H349.06V91.14H86.33Z"
     id="path1" />
  <path
     id="path22-7-0"
     class="cls-1"
     d="M171.28,265.52a4.47,4.47,0,0,1,1.31,3.57v33.65c0,3-1.53,4.54-4.57,4.57l-28.65-.05c-3,0-4.53-1.5-4.53-4.52V284.48a1.55,1.55,0,0,1,.18-.7l-.05-.13-.13,0V269.09q0-4.57,4.53-4.53l28.65,0a5.07,5.07,0,0,1,3.26,1m130.19-103c.06,3.08-1.45,4.64-4.52,4.7l-28.62-.09c-3.13,0-4.72-1.53-4.78-4.61l0-18.3q.09-4.6,4.78-4.61l28.79.09q4.43.08,4.34,4.52l.05,18.3m-80.88,0,0-18.3q.09-4.6,4.79-4.61l28.48,0q4.69,0,4.65,4.65l0,18.3c.06,3.08-1.48,4.61-4.61,4.61H225.37c-3.13,0-4.72-1.53-4.78-4.61m-5.13,0c0,3.11-1.48,4.64-4.52,4.61H182.33c-3.05,0-4.58-1.5-4.61-4.61l-.05-18.3q.09-4.6,4.61-4.61H211c3,0,4.49,1.54,4.44,4.61l0,18.3m-76.09-23,28.65,0q4.56,0,4.44,4.61l0,18.3c.06,3.08-1.42,4.61-4.44,4.61H139.37c-3,0-4.55-1.53-4.61-4.61l0-18.3q.09-4.6,4.66-4.65m162.14,98.05,0,18.3q0,4.53-4.6,4.61l-157.58-.08q-4.53,0-4.53-4.53V237.61a1.67,1.67,0,0,1,.18-.79c-.12-.64-.2-1.24-.26-1.82l.08-38.36A11.12,11.12,0,0,1,135,195a4.15,4.15,0,0,1-.13-1V175.77c-.05-3.07,1.42-4.61,4.44-4.61H168q4.52,0,4.61,4.61V194c0,.34,0,.68-.05,1,0,.55.05,1.08.05,1.6L172.5,233h91.05l0-34.4H182.28q-4.51,0-4.52-4.52V175.73q-.09-4.6,4.44-4.61l114.62.09q4.6-.09,4.69,4.52v18.35a2.08,2.08,0,0,1,0,.61V196l0,39.7c0,.44,0,.87,0,1.31a1,1,0,0,0,0,.65m16.31,89.18q4.17,0,4.22-4.22L322,122.38c0-2.5-1.14-3.87-3.43-4.13a4,4,0,0,1-.79-.09l-200.1-.09c-2.87.09-4.31,1.52-4.31,4.31V323.44q.48,3.35,4.31,3.26l200.15.13" />
  <path
     class="cls-1"
     d="m 424.00018,192.15 a 69.24,69.24 0 0 1 5.53,-27.46 73.92,73.92 0 0 1 15.35,-23 72.57,72.57 0 0 1 22.79,-15.69 70.12,70.12 0 0 1 55.47,0 74.87,74.87 0 0 1 23,15.73 73.57,73.57 0 0 1 15.64,23 68.45,68.45 0 0 1 5.62,27.46 69.31,69.31 0 0 1 -5.64,27.81 71.34,71.34 0 0 1 -15.62,22.77 74.09,74.09 0 0 1 -23,15.35 72.46,72.46 0 0 1 -55.48,0 71.76,71.76 0 0 1 -38.13,-38.12 70.11,70.11 0 0 1 -5.53,-27.85 z m 28.6,0 a 45,45 0 0 0 12.68,31.74 42.5,42.5 0 0 0 31.18,13.11 40.35,40.35 0 0 0 30.12,-13.06 46.3,46.3 0 0 0 12.2,-31.74 46.32,46.32 0 0 0 -12.49,-32.2 41.22,41.22 0 0 0 -13.63,-9.63 43.69,43.69 0 0 0 -33.94,0 42.21,42.21 0 0 0 -13.72,9.63 44,44 0 0 0 -9.16,14.39 47.85,47.85 0 0 0 -3.24,17.76 z"
     id="path2" />
  <path
     class="cls-1"
     d="m 632.78018,121.79 q 17.34,0 29.36,5.82 a 41.87,41.87 0 0 1 18.3,16.39 q 6.3,10.59 6.29,25.08 a 60.22,60.22 0 0 1 -2.59,17.25 46,46 0 0 1 -8.2,15.73 39.82,39.82 0 0 1 -15.06,11.34 q -9.43,4.31 -23.17,4.3 h -19.81 v 44.42 h -27.64 V 121.79 Z m 4.76,69 a 22.52,22.52 0 0 0 10.49,-2.19 18.42,18.42 0 0 0 6.58,-5.53 22.79,22.79 0 0 0 3.43,-7 23,23 0 0 0 1.05,-6.29 31.63,31.63 0 0 0 -0.67,-5.63 23.11,23.11 0 0 0 -2.76,-7.15 17,17 0 0 0 -6.39,-6.1 q -4.29,-2.47 -11.54,-2.48 h -19.83 v 42.33 z"
     id="path3" />
  <path
     class="cls-1"
     d="m 706.75018,121.79 h 95.71 v 26.69 h -68.06 v 29.94 h 60.25 v 26.69 h -60.25 v 30.32 h 70.74 v 26.69 h -98.39 z"
     id="path4" />
  <path
     class="cls-1"
     d="m 954.61018,267.84 -106.39,-96.09 8.2,4.57 0.57,85.8 h -28 V 116.26 h 1.15 l 104.07,95.74 -6.1,-2.67 -0.57,-87.52 h 27.83 v 146 z"
     id="path5" />
  <path
     class="cls-1"
     d="m 1044.4102,124.27 q 15.06,0 25.74,5 a 37.72,37.72 0 0 1 16.49,14.59 q 5.82,9.54 5.82,23.07 a 53.62,53.62 0 0 1 -2.48,16.11 40.56,40.56 0 0 1 -7.91,14.3 39.35,39.35 0 0 1 -14.21,10.3 q -8.78,3.9 -21.35,3.9 h -20.37 v 50.53 h -18.5 v -137.8 z m 1.91,69.21 c 5.46,0 10,-0.86 13.53,-2.57 a 21.82,21.82 0 0 0 8.39,-6.77 28.88,28.88 0 0 0 4.39,-8.58 28.22,28.22 0 0 0 1.33,-8.2 30.28,30.28 0 0 0 -1.33,-8.67 22.52,22.52 0 0 0 -4.48,-8.2 23.9,23.9 0 0 0 -8.2,-6.1 29.16,29.16 0 0 0 -12.49,-2.39 h -21.32 v 51.48 z"
     id="path6" />
  <path
     class="cls-1"
     d="m 1090.9302,262.12 60.06,-143.57 h 1.15 l 60.24,143.57 h -21.16 l -45,-114.59 13.16,-8.58 -50.14,123.17 z m 35.28,-52.24 h 51.28 l 6.1,16 h -62.72 z"
     id="path7" />
  <path
     class="cls-1"
     d="m 1213.5302,124.27 h 91.71 V 142 h -37 v 120.12 h -18.5 V 142 h -36.22 z"
     id="path8" />
  <path
     class="cls-1"
     d="m 1423.6402,251.82 a 81.61,81.61 0 0 1 -9.34,5.15 68.68,68.68 0 0 1 -13.83,4.77 77.11,77.11 0 0 1 -46.14,-3.81 65,65 0 0 1 -35.75,-37.09 73.87,73.87 0 0 1 -4.76,-26.6 79.81,79.81 0 0 1 5,-28.5 66.32,66.32 0 0 1 14.21,-22.69 65.49,65.49 0 0 1 21.73,-15 69.07,69.07 0 0 1 27.36,-5.33 71.6,71.6 0 0 1 22.5,3.33 85.42,85.42 0 0 1 17.35,7.72 l -7.43,17.54 a 75.47,75.47 0 0 0 -13.92,-7.43 48,48 0 0 0 -37,0.57 49.37,49.37 0 0 0 -15.83,11.25 53.74,53.74 0 0 0 -14.68,37.56 59.74,59.74 0 0 0 3.53,20.69 49.7,49.7 0 0 0 10.11,16.78 45.92,45.92 0 0 0 15.92,11.15 52.7,52.7 0 0 0 21,4 50.49,50.49 0 0 0 18.68,-3.24 58.16,58.16 0 0 0 13.54,-7.24 z"
     id="path9" />
  <path
     class="cls-1"
     d="m 1559.0102,124.27 v 137.85 h -18.5 v -60.44 h -72.07 v 60.44 h -18.49 V 124.27 h 18.49 V 184 h 72.07 v -59.73 z"
     id="path10" />
  <text
     xml:space="preserve"
     style="font-size:34.6667px;line-height:1.25;font-family:'Josefin Sans';-inkscape-font-specification:'Josefin Sans';letter-spacing:0.27px;fill:#b5e3d9"
     x="425.34366"
     y="318.22269"
     id="text1"><tspan
       sodipodi:role="line"
       id="tspan1"
       x="425.34366"
       y="318.22269"
       style="font-style:normal;font-variant:normal;font-weight:300;font-stretch:normal;font-size:34.6667px;font-family:'Josefin Sans';-inkscape-font-specification:'Josefin Sans Light';letter-spacing:0.27px;fill:#b5e3d9">PERSONALIZED ASSESSMENT AND TRAINING OF COMPETENCIES</tspan></text>
</svg>
