<svg id="Layer_1" data-name="Layer 1" xmlns="http://www.w3.org/2000/svg" viewBox="0 0 457 445"><defs><style>.cls-1{fill:#cefbf2;}</style></defs><title>Icon 2</title><path class="cls-1" d="M391.12,398.85H65.88a13.74,13.74,0,0,1-13.73-13.72V59.88A13.75,13.75,0,0,1,65.88,46.15H391.12a13.75,13.75,0,0,1,13.73,13.73V385.13A13.74,13.74,0,0,1,391.12,398.85ZM67.29,383.71H389.71V61.29H67.29Z"/><path id="path22-7-0" class="cls-1" d="M171.54,275.29a5.5,5.5,0,0,1,1.6,4.38V321c0,3.7-1.86,5.57-5.6,5.6l-35.16-.05q-5.55,0-5.55-5.55V298.56a1.9,1.9,0,0,1,.21-.85l-.05-.16-.16-.06V279.67q-.06-5.61,5.55-5.55l35.16-.05a6.21,6.21,0,0,1,4,1.22M331.31,148.94q.1,5.66-5.55,5.76l-35.11-.11c-3.85,0-5.8-1.88-5.87-5.65l-.06-22.47q.11-5.66,5.87-5.66l35.33.11c3.63.07,5.4,1.92,5.33,5.55l.06,22.47m-99.26,0,.06-22.47q.1-5.66,5.87-5.66l35,0q5.76,0,5.71,5.71l-.05,22.47q.11,5.66-5.66,5.65h-35c-3.84,0-5.79-1.88-5.87-5.65m-6.29,0c0,3.8-1.82,5.69-5.55,5.65H185.1c-3.74,0-5.62-1.85-5.66-5.65l-.05-22.47q.11-5.66,5.65-5.66h35.22c3.7,0,5.52,1.89,5.44,5.66l.06,22.47m-93.38-28.18,35.16,0c3.74,0,5.55,1.85,5.44,5.66l.06,22.47q.11,5.66-5.45,5.65H132.38q-5.55,0-5.66-5.65l0-22.47q.1-5.66,5.71-5.71m199,120.33.05,22.47c0,3.69-1.88,5.58-5.65,5.65l-193.38-.11q-5.55,0-5.55-5.54V241a2.12,2.12,0,0,1,.21-1c-.14-.79-.25-1.53-.32-2.24l.11-47.07a12.16,12.16,0,0,1,.16-2,4.51,4.51,0,0,1-.16-1.23V165.16q-.1-5.66,5.44-5.66h35.22q5.55,0,5.65,5.66v22.41a12.27,12.27,0,0,1,0,1.23c0,.67,0,1.33,0,2l-.1,44.61H284.78l.05-42.21H185q-5.55,0-5.55-5.55V165.1q-.11-5.65,5.45-5.65l140.66.1q5.65-.11,5.76,5.55v22.52a3.14,3.14,0,0,1,0,.75V190l.05,48.72a14.23,14.23,0,0,0,0,1.6,1.19,1.19,0,0,0-.05.8m20,109.44c3.42,0,5.14-1.72,5.18-5.17l-.06-245.73q0-4.59-4.21-5.07a4.29,4.29,0,0,1-1-.11l-245.57-.1q-5.28.15-5.28,5.28V346.37q.59,4.11,5.28,4l245.62.16"/></svg>